<svg width="197" height="49" viewBox="0 0 197 49" xmlns="http://www.w3.org/2000/svg"><g fill="#006F53" stroke="#006F53"><path d="M11.972 18.891q.857 0 2.06-.326l.327 2.366q-1.224.387-2.468.387-3.712 0-5.527-3.447-2.55-.49-4.05-2.437Q.817 13.486.817 10.59q0-3.427 1.988-5.517 1.99-2.09 5.252-2.09 3.243 0 5.222 2.08 1.978 2.08 1.978 5.486 0 2.937-1.53 4.905-1.53 1.968-4.12 2.438.796.999 2.366.999zm-8.178-8.362q0 2.366 1.142 3.65 1.142 1.285 3.12 1.285 1.958 0 3.09-1.295t1.132-3.64q0-2.387-1.132-3.682t-3.09-1.295q-1.978 0-3.12 1.295-1.142 1.295-1.142 3.682zM23.802 7.612h2.733V17.81h-2.63v-1.122q-1.735 1.367-3.631 1.367-1.51 0-2.397-.857-.887-.857-.887-2.488V7.612h2.774v6.466q0 1.672 1.387 1.672 1.244 0 2.651-1.183zM33.735 15.832q1.611 0 3.08-1.081l1.122 1.794q-1.918 1.51-4.386 1.51-2.345 0-3.732-1.459-1.387-1.458-1.387-3.742 0-2.305 1.428-3.906 1.427-1.601 3.895-1.601 1.795 0 3.04.948 1.244.949 1.244 2.6 0 1.265-.786 2.091-.785.826-2.417.826h-3.793q.428 2.02 2.692 2.02zm0-6.384q-1 0-1.774.652-.776.653-.98 1.836h3.264q.612 0 .948-.306.337-.306.337-.816 0-.57-.5-.969-.5-.397-1.295-.397zM45.728 7.347q.918 0 1.55.367l-.571 2.203q-.714-.225-1.244-.225-1.469 0-2.693 1.143v6.975h-2.814V7.612h2.712v1.183q1.387-1.448 3.06-1.448zM56.007 18.034q-2.651 0-4.262-1.55l1.101-1.754q1.489 1.204 3.039 1.204.673 0 1.132-.266.459-.265.459-.734 0-.163-.061-.306t-.194-.265q-.133-.122-.255-.204-.122-.081-.367-.183t-.398-.153q-.153-.051-.469-.153-.316-.102-.459-.143-1.428-.49-2.192-1.142-.765-.653-.765-1.836 0-1.51 1.152-2.356 1.152-.846 2.968-.846 2.203 0 3.834 1.183l-1.06 1.733q-1.408-.856-2.652-.856-.673 0-1.08.255-.409.255-.409.663 0 .326.306.581.306.255.561.347.255.091.928.316.694.224 1.03.347.337.122.908.418.57.295.846.591.275.296.5.775.224.48.224 1.071 0 1.53-1.264 2.397-1.265.866-3.1.866zM66.41 7.347q2.06 0 3.283 1.111 1.224 1.112 1.224 3.131v6.221h-2.448v-1.326q-1.162 1.57-3.304 1.57-1.57 0-2.54-.866-.968-.867-.968-2.295 0-1.754 1.407-2.56 1.408-.805 3.57-.805.918 0 1.733.122v-.142q0-.959-.591-1.459-.592-.5-1.57-.5-1.591 0-3.1 1.163L61.921 8.98q1.734-1.632 4.487-1.632zm-.572 8.648q1.102 0 1.775-.755.673-.755.754-1.958-.795-.061-1.53-.061-2.426 0-2.426 1.489 0 .57.387.928.388.357 1.04.357zM79.055 7.408q1.876 0 3.07 1.356 1.193 1.357 1.193 3.6 0 2.59-1.5 4.15-1.499 1.561-4.19 1.561-2.591 0-4.406-1.122V3.247h2.794V8.47q1.407-1.061 3.039-1.061zm-1.428 8.403q1.387 0 2.121-.897.735-.898.735-2.468 0-1.285-.53-2.04-.531-.754-1.612-.754-1.285 0-2.325 1.04v4.854q.795.265 1.611.265zM89.987 15.832q1.611 0 3.08-1.081l1.122 1.794q-1.917 1.51-4.385 1.51-2.346 0-3.733-1.459-1.387-1.458-1.387-3.742 0-2.305 1.428-3.906t3.896-1.601q1.794 0 3.039.948 1.244.949 1.244 2.6 0 1.265-.786 2.091-.785.826-2.416.826h-3.794q.428 2.02 2.692 2.02zm0-6.384q-1 0-1.774.652-.775.653-.98 1.836h3.264q.612 0 .948-.306.337-.306.337-.816 0-.57-.5-.969-.5-.397-1.295-.397zM101.98 7.347q.918 0 1.55.367l-.571 2.203q-.714-.225-1.244-.225-1.469 0-2.692 1.143v6.975h-2.815V7.612h2.713v1.183q1.387-1.448 3.059-1.448zM121.846 7.347q1.53 0 2.427.867t.897 2.478v7.118h-2.835v-6.506q0-.837-.296-1.244-.295-.408-1.03-.408-1.346 0-2.59 1.101v7.057h-2.835v-6.506q0-.837-.306-1.244-.306-.408-1.04-.408-1.244 0-2.59 1.162v6.996h-2.835V7.612h2.63v1.285q1.857-1.55 3.754-1.55 2.06 0 2.835 1.489 1.815-1.49 3.814-1.49zM131.717 7.347q2.06 0 3.284 1.111 1.224 1.112 1.224 3.131v6.221h-2.448v-1.326q-1.162 1.57-3.304 1.57-1.57 0-2.54-.866-.968-.867-.968-2.295 0-1.754 1.407-2.56 1.408-.805 3.57-.805.918 0 1.733.122v-.142q0-.959-.591-1.459-.592-.5-1.57-.5-1.591 0-3.1 1.163L127.23 8.98q1.734-1.632 4.487-1.632zm-.57 8.648q1.1 0 1.774-.755.673-.755.754-1.958-.795-.061-1.53-.061-2.426 0-2.426 1.489 0 .57.387.928.388.357 1.04.357zM141.16 5.93l-.224.229q-.224.23-.979.23-.754 0-1.193-.45-.438-.448-.438-1.223 0-.775.438-1.224.439-.449 1.193-.449.755 0 1.204.46.448.458.448 1.213 0 .754-.448 1.213zm-2.59 11.88V7.612h2.754V17.81zM147.239 18.034q-2.652 0-4.263-1.55l1.101-1.754q1.49 1.204 3.04 1.204.672 0 1.131-.266.46-.265.46-.734 0-.163-.062-.306-.061-.143-.194-.265-.132-.122-.255-.204-.122-.081-.367-.183t-.398-.153q-.152-.051-.469-.153-.316-.102-.459-.143-1.427-.49-2.192-1.142-.765-.653-.765-1.836 0-1.51 1.152-2.356 1.153-.846 2.968-.846 2.203 0 3.835 1.183l-1.061 1.733q-1.407-.856-2.652-.856-.673 0-1.08.255-.408.255-.408.663 0 .326.305.581.306.255.561.347.255.091.928.316.694.224 1.03.347.337.122.908.418.571.295.846.591.276.296.5.775.224.48.224 1.071 0 1.53-1.264 2.397-1.265.866-3.1.866zM154.765 13.955q-.102-.49-.102-1 0-.876.347-1.651.346-.775.846-1.316.5-.54 1-1.02.5-.479.846-.989.347-.51.347-1 0-.713-.52-1.141-.52-.429-1.275-.429-1.591 0-2.672 1.734l-2.02-1.387q.674-1.428 1.98-2.172 1.304-.745 2.895-.745 1.918 0 3.172 1.071 1.254 1.07 1.254 2.866 0 .856-.367 1.59-.367.735-.897 1.265-.53.53-1.06 1.04-.531.51-.898 1.173t-.367 1.418q0 .428.04.693zm2.396 3.6l-.219.22q-.22.219-.913.219-.693 0-1.121-.439-.429-.438-.429-1.132 0-.693.429-1.132.428-.438 1.121-.438.694 0 1.132.438.439.439.439 1.132 0 .694-.439 1.132z" stroke-width=".0204"/></g><g fill="#006F53" stroke="#006F53"><path d="M7.791 42.514q-3.039 0-5.007-1.958Q.816 38.598.816 35.09q0-3.488 2.019-5.558 2.02-2.07 5.201-2.07 1.897 0 3.396.826 1.5.826 2.356 2.295l-2.162 1.448q-1.244-2.04-3.508-2.04-1.979 0-3.152 1.316-1.172 1.315-1.172 3.681 0 2.346 1.183 3.63 1.183 1.286 3.018 1.286 2.366 0 4.14-2.06l1.816 1.774q-2.468 2.896-6.16 2.896zM15.521 42.29V27.727h2.795V42.29zM23.374 30.41l-.225.229q-.224.23-.979.23-.754 0-1.193-.45-.438-.448-.438-1.223 0-.775.438-1.224.439-.449 1.193-.449.755 0 1.204.46.449.458.449 1.213 0 .754-.45 1.213zm-2.59 11.88V32.092h2.753V42.29zM31.287 31.827q2.305 0 4.14 1.101v13.196h-2.793v-4.568q-1.265.938-2.856.938-1.917 0-3.11-1.356-1.193-1.357-1.193-3.6 0-2.59 1.54-4.15 1.54-1.561 4.272-1.561zm-.877 8.423q1.285 0 2.224-.979v-4.935q-.673-.245-1.449-.245-1.366 0-2.12.918-.755.917-.755 2.488 0 1.264.52 2.009.52.744 1.58.744zM44.586 32.092h2.733V42.29h-2.631v-1.122q-1.734 1.367-3.63 1.367-1.51 0-2.397-.857-.888-.857-.888-2.488v-7.098h2.774v6.466q0 1.672 1.387 1.672 1.244 0 2.652-1.183zM54.519 40.312q1.61 0 3.08-1.081l1.121 1.794q-1.917 1.51-4.385 1.51-2.346 0-3.733-1.459-1.386-1.458-1.386-3.742 0-2.305 1.427-3.906 1.428-1.601 3.896-1.601 1.795 0 3.039.948 1.244.949 1.244 2.6 0 1.265-.785 2.091-.785.826-2.417.826h-3.794q.429 2.02 2.693 2.02zm0-6.384q-1 0-1.775.652-.775.653-.979 1.836h3.263q.612 0 .949-.306.336-.306.336-.816 0-.57-.5-.969-.499-.397-1.294-.397zM69.49 31.827q2.06 0 3.283 1.111 1.224 1.112 1.224 3.131v6.221h-2.448v-1.326q-1.162 1.57-3.304 1.57-1.57 0-2.54-.866-.968-.867-.968-2.295 0-1.754 1.407-2.56 1.408-.805 3.57-.805.917 0 1.733.122v-.142q0-.959-.591-1.459-.592-.5-1.57-.5-1.592 0-3.101 1.163l-1.183-1.733q1.734-1.632 4.487-1.632zm-.572 8.648q1.101 0 1.775-.755.673-.755.754-1.958-.795-.061-1.53-.061-2.427 0-2.427 1.489 0 .57.388.928.387.357 1.04.357zM81.625 31.827q2.305 0 4.14 1.101v13.196h-2.794v-4.568q-1.265.938-2.856.938-1.917 0-3.11-1.356-1.193-1.357-1.193-3.6 0-2.59 1.54-4.15 1.54-1.561 4.273-1.561zm-.877 8.423q1.285 0 2.223-.979v-4.935q-.673-.245-1.448-.245-1.367 0-2.121.918-.755.917-.755 2.488 0 1.264.52 2.009.52.744 1.58.744zM94.923 32.092h2.733V42.29h-2.631v-1.122q-1.734 1.367-3.63 1.367-1.51 0-2.397-.857-.887-.857-.887-2.488v-7.098h2.774v6.466q0 1.672 1.387 1.672 1.244 0 2.651-1.183zM102.694 30.41l-.224.229q-.225.23-.98.23-.754 0-1.193-.45-.438-.448-.438-1.223 0-.775.438-1.224.439-.449 1.194-.449.754 0 1.203.46.449.458.449 1.213 0 .754-.45 1.213zm-2.59 11.88V32.092h2.753V42.29zM106.508 42.494q-.694 0-1.142-.449-.449-.448-.449-1.162t.439-1.153q.438-.438 1.152-.438t1.152.438q.439.439.439 1.153t-.439 1.162q-.438.449-1.152.449z" stroke-width=".0204"/></g></svg>