<svg width="221" height="96" viewBox="0 0 221 96" xmlns="http://www.w3.org/2000/svg"><g fill="#50606B" stroke="#50606B"><path d="M10.665 17.47l-1.2-3.542H4.241l-1.2 3.542H.06L4.902 4.244q.42-1.14 1.941-1.14 1.54 0 1.961 1.16l4.842 13.206zm-5.603-5.963h3.582l-1.8-5.302zM19.109 17.71q-2.101 0-3.512-1.38-1.41-1.381-1.41-3.822 0-2.421 1.41-3.862 1.41-1.44 3.732-1.44 1.4 0 2.52.59 1.121.59 1.722 1.79l-2.061 1.161q-.7-1.3-2.141-1.3-1.06 0-1.761.76-.7.76-.7 2.28 0 1.501.67 2.232.67.73 1.71.73 1.441 0 2.422-1.56l1.98 1.14q-.6 1.24-1.79 1.96-1.19.721-2.791.721zM29.453 17.73q-2.32 0-3.681-1.44-1.361-1.441-1.34-3.822.02-2.401 1.37-3.832 1.35-1.43 3.651-1.43 2.361 0 3.702 1.41 1.34 1.41 1.34 3.852 0 2.4-1.35 3.831t-3.692 1.431zm0-2.24q2.381 0 2.381-3.022t-2.38-3.022q-1.141 0-1.751.76-.61.761-.61 2.262 0 3.021 2.36 3.021zM49.162 7.205q1.5 0 2.381.85.88.851.88 2.432v6.983h-2.78v-6.383q0-.82-.29-1.22t-1.011-.4q-1.32 0-2.541 1.08v6.923h-2.782v-6.383q0-.82-.3-1.22t-1.02-.4q-1.22 0-2.541 1.14v6.863h-2.782V7.465h2.582v1.261q1.82-1.52 3.681-1.52 2.021 0 2.782 1.46 1.78-1.46 3.741-1.46zM60.267 7.205q1.841 0 3.072 1.401 1.23 1.4 1.23 3.722 0 2.42-1.38 3.911-1.381 1.491-3.542 1.491-1.12 0-2.141-.46v3.962h-2.741V7.465h2.581v.8q1.32-1.06 2.921-1.06zm-.86 8.284q1.06 0 1.73-.83.671-.83.671-2.311 0-1.3-.54-2.101-.54-.8-1.581-.8-1.18 0-2.181.96v4.602q.94.48 1.9.48zM70.532 7.205q2.02 0 3.221 1.09 1.2 1.091 1.2 3.072v6.103h-2.4v-1.3q-1.14 1.54-3.242 1.54-1.54 0-2.49-.85-.951-.85-.951-2.251 0-1.721 1.38-2.511 1.381-.79 3.502-.79.9 0 1.7.12v-.14q0-.941-.58-1.431-.58-.49-1.54-.49-1.56 0-3.042 1.14l-1.16-1.7q1.7-1.602 4.402-1.602zm-.56 8.484q1.08 0 1.74-.74.66-.74.74-1.921-.78-.06-1.5-.06-2.381 0-2.381 1.46 0 .56.38.911.38.35 1.02.35zM83.438 7.205q1.54 0 2.41.85.871.851.871 2.432v6.983h-2.761v-6.343q0-.86-.32-1.26t-1.02-.4q-1.201 0-2.562 1.04v6.963h-2.801V7.465h2.581v1.061q1.76-1.32 3.602-1.32zM95.223 7.205q1.54 0 2.411.85.87.851.87 2.432v6.983h-2.76v-6.343q0-.86-.32-1.26-.321-.4-1.021-.4-1.2 0-2.561 1.04v6.963H89.04V3.184h2.802v5.182q1.66-1.16 3.381-1.16zM105.488 15.53q1.58 0 3.021-1.061l1.1 1.76q-1.88 1.481-4.301 1.481-2.301 0-3.662-1.43-1.36-1.431-1.36-3.672 0-2.261 1.4-3.832 1.4-1.57 3.822-1.57 1.76 0 2.981.93 1.22.93 1.22 2.55 0 1.241-.77 2.052-.77.81-2.37.81h-3.722q.42 1.981 2.64 1.981zm0-6.264q-.98 0-1.741.64-.76.64-.96 1.801h3.201q.6 0 .93-.3.33-.3.33-.8 0-.56-.49-.95-.49-.39-1.27-.39zM120.174 7.205q2.021 0 3.222 1.09 1.2 1.091 1.2 3.072v6.103h-2.4v-1.3q-1.141 1.54-3.242 1.54-1.54 0-2.491-.85-.95-.85-.95-2.251 0-1.721 1.38-2.511t3.501-.79q.9 0 1.701.12v-.14q0-.941-.58-1.431-.58-.49-1.54-.49-1.561 0-3.042 1.14l-1.16-1.7q1.7-1.602 4.401-1.602zm-.56 8.484q1.08 0 1.74-.74.661-.74.741-1.921-.78-.06-1.5-.06-2.381 0-2.381 1.46 0 .56.38.911.38.35 1.02.35zM131.4 17.73q-2.322 0-3.682-1.44-1.36-1.441-1.34-3.822.02-2.401 1.37-3.832 1.35-1.43 3.651-1.43 2.362 0 3.702 1.41 1.34 1.41 1.34 3.852 0 2.4-1.35 3.831T131.4 17.73zm0-2.24q2.38 0 2.38-3.022t-2.38-3.022q-1.141 0-1.751.76-.61.761-.61 2.262 0 3.021 2.36 3.021zM149.228 7.465h2.68l-3.5 9.125q-.2.56-.591.78-.39.22-1.15.22-.781 0-1.171-.22t-.61-.78l-3.522-9.125h2.821l2.501 7.644zM155.79 5.815l-.22.225q-.22.225-.96.225t-1.17-.44q-.43-.44-.43-1.2 0-.761.43-1.201.43-.44 1.17-.44t1.18.45q.44.45.44 1.19t-.44 1.19zm-2.54 11.655V7.465h2.7V17.47zM165.155 7.465h2.681l-3.502 9.125q-.2.56-.59.78-.39.22-1.15.22-.78 0-1.17-.22-.391-.22-.611-.78l-3.522-9.125h2.821l2.502 7.644zM173.398 17.73q-2.32 0-3.681-1.44-1.36-1.441-1.34-3.822.02-2.401 1.37-3.832 1.35-1.43 3.651-1.43 2.362 0 3.702 1.41 1.34 1.41 1.34 3.852 0 2.4-1.35 3.831t-3.692 1.431zm0-2.24q2.382 0 2.382-3.022t-2.382-3.022q-1.14 0-1.75.76-.61.761-.61 2.262 0 3.021 2.36 3.021zM189.486 15.53q1.58 0 3.021-1.061l1.1 1.76q-1.88 1.481-4.301 1.481-2.301 0-3.662-1.43-1.36-1.431-1.36-3.672 0-2.261 1.4-3.832 1.4-1.57 3.822-1.57 1.76 0 2.981.93 1.22.93 1.22 2.55 0 1.241-.77 2.052-.77.81-2.37.81h-3.722q.42 1.981 2.64 1.981zm0-6.264q-.98 0-1.741.64-.76.64-.96 1.801h3.201q.6 0 .93-.3.33-.3.33-.8 0-.56-.49-.95-.49-.39-1.27-.39zM208.374 7.205q1.501 0 2.381.85.88.851.88 2.432v6.983h-2.78v-6.383q0-.82-.29-1.22t-1.011-.4q-1.32 0-2.541 1.08v6.923h-2.781v-6.383q0-.82-.3-1.22t-1.021-.4q-1.22 0-2.541 1.14v6.863h-2.781V7.465h2.58v1.261q1.822-1.52 3.682-1.52 2.021 0 2.782 1.46 1.78-1.46 3.741-1.46z" stroke-width=".02001"/></g><g fill="#EC6608" stroke="#EC6608"><path d="M12.606 31.475h2.52l-2.54 9.125q-.18.56-.58.78-.4.22-1.161.22-.78 0-1.19-.22-.41-.22-.57-.78l-1.402-5.683-1.46 5.683q-.18.58-.57.79-.39.21-1.191.21-.8 0-1.2-.22-.4-.22-.56-.78L.26 31.475h2.661l1.621 7.404 1.9-7.404h2.662l1.78 7.364zM27.953 31.475h2.52l-2.54 9.125q-.18.56-.58.78-.4.22-1.161.22-.78 0-1.19-.22-.41-.22-.57-.78l-1.402-5.683-1.46 5.683q-.18.58-.57.79-.39.21-1.191.21-.8 0-1.2-.22-.4-.22-.56-.78l-2.442-9.125h2.661l1.621 7.404 1.9-7.404h2.662l1.78 7.364zM43.3 31.475h2.52L43.28 40.6q-.18.56-.58.78-.4.22-1.161.22-.78 0-1.19-.22-.41-.22-.571-.78l-1.4-5.683-1.461 5.683q-.18.58-.57.79-.39.21-1.191.21-.8 0-1.2-.22-.4-.22-.56-.78l-2.442-9.125h2.661l1.62 7.404 1.902-7.404h2.661l1.78 7.364zM47.642 41.68q-.68 0-1.12-.44-.441-.44-.441-1.14t.43-1.131q.43-.43 1.13-.43t1.131.43q.43.43.43 1.13t-.43 1.14q-.43.441-1.13.441zM63.989 31.215q1.5 0 2.381.85.88.851.88 2.432v6.983h-2.78v-6.383q0-.82-.291-1.22-.29-.4-1.01-.4-1.321 0-2.542 1.08v6.923h-2.78v-6.383q0-.82-.301-1.22-.3-.4-1.02-.4-1.221 0-2.542 1.14v6.863h-2.78V31.475h2.58v1.261q1.821-1.52 3.682-1.52 2.02 0 2.781 1.46 1.781-1.46 3.742-1.46zM73.673 31.215q2.021 0 3.222 1.09 1.2 1.091 1.2 3.072v6.103h-2.4v-1.3q-1.141 1.54-3.242 1.54-1.54 0-2.491-.85-.95-.85-.95-2.251 0-1.721 1.38-2.511t3.501-.79q.9 0 1.701.12v-.14q0-.941-.58-1.431-.58-.49-1.54-.49-1.561 0-3.042 1.14l-1.16-1.7q1.7-1.602 4.401-1.602zm-.56 8.484q1.08 0 1.74-.74.661-.74.741-1.921-.78-.06-1.5-.06-2.382 0-2.382 1.46 0 .56.38.911.38.35 1.021.35zM82.938 29.825l-.22.225q-.22.225-.961.225-.74 0-1.17-.44-.43-.44-.43-1.2 0-.761.43-1.201.43-.44 1.17-.44t1.18.45q.44.45.44 1.19t-.44 1.19zM80.396 41.48V31.475h2.702V41.48zM88.9 41.7q-2.6 0-4.182-1.52l1.08-1.721q1.461 1.18 2.982 1.18.66 0 1.11-.26.45-.26.45-.72 0-.16-.06-.3-.06-.14-.19-.26t-.25-.2q-.12-.08-.36-.18-.24-.1-.39-.15-.15-.05-.46-.15-.31-.1-.45-.14-1.4-.481-2.151-1.121-.75-.64-.75-1.801 0-1.48 1.13-2.311 1.13-.83 2.911-.83 2.161 0 3.762 1.16l-1.04 1.7q-1.381-.84-2.602-.84-.66 0-1.06.25t-.4.65q0 .32.3.57.3.251.55.341.25.09.91.31.68.22 1.011.34.33.12.89.41t.83.58q.271.291.491.761.22.47.22 1.05 0 1.501-1.24 2.352-1.24.85-3.042.85zM101.626 27.194h2.701V41.48h-2.54v-.88q-1.302 1.14-2.982 1.14-1.821 0-3.062-1.4-1.24-1.401-1.24-3.702 0-2.461 1.37-3.942 1.371-1.48 3.452-1.48 1.28 0 2.301.62zm-2.181 12.305q1.22 0 2.181-.98v-4.282q-.9-.78-1.98-.78-1.061 0-1.712.81-.65.81-.65 2.33 0 1.301.56 2.102.56.8 1.601.8zM109.27 29.825l-.22.225q-.22.225-.961.225-.74 0-1.17-.44-.43-.44-.43-1.2 0-.761.43-1.201.43-.44 1.17-.44t1.18.45q.44.45.44 1.19t-.44 1.19zm-2.542 11.655V31.475h2.702V41.48zM115.932 31.215q2.021 0 3.222 1.09 1.2 1.091 1.2 3.072v6.103h-2.4v-1.3q-1.141 1.54-3.242 1.54-1.54 0-2.491-.85-.95-.85-.95-2.251 0-1.721 1.38-2.511t3.502-.79q.9 0 1.7.12v-.14q0-.941-.58-1.431-.58-.49-1.54-.49-1.561 0-3.042 1.14l-1.16-1.7q1.7-1.602 4.401-1.602zm-.56 8.484q1.08 0 1.741-.74.66-.74.74-1.921-.78-.06-1.5-.06-2.381 0-2.381 1.46 0 .56.38.911.38.35 1.02.35zM122.636 41.48V27.194h2.74V41.48zM132.3 41.74q-2.321 0-3.682-1.44-1.36-1.441-1.34-3.822.02-2.401 1.37-3.832 1.35-1.43 3.652-1.43 2.36 0 3.702 1.41 1.34 1.41 1.34 3.852 0 2.4-1.35 3.831-1.351 1.431-3.692 1.431zm0-2.24q2.381 0 2.381-3.022t-2.381-3.022q-1.14 0-1.75.76-.611.761-.611 2.262 0 3.021 2.36 3.021zM148.747 31.756q-.5.62-1.48 1.16.52.76.52 1.8 0 1.542-1.21 2.452-1.211.91-3.272.91-.78 0-1.52-.16-.381.2-.381.56 0 .38.4.57.4.191 1.3.291 2.822.32 3.622.66 1.721.7 1.721 2.461 0 1.641-1.38 2.472-1.381.83-3.862.83-2.201 0-3.512-.75-1.31-.75-1.31-2.131 0-1.541 1.64-2.201-.88-.62-.88-1.641 0-1.08 1.06-1.8-1.24-.861-1.24-2.482 0-1.6 1.21-2.551 1.211-.95 3.212-.95 1.32 0 2.32.42 1.021-.46 1.822-1.341zm-5.402 4.442q.94 0 1.48-.39t.54-1.111q0-.72-.53-1.12-.53-.4-1.47-.4t-1.47.41q-.531.41-.531 1.15 0 1.46 1.98 1.46zm2.541 6.423q0-.52-.52-.73-.52-.21-1.661-.331-1.26-.12-1.78-.2-1.041.5-1.041 1.22 0 1.261 2.44 1.261 2.562 0 2.562-1.22zM154.41 41.74q-2.321 0-3.682-1.44-1.36-1.441-1.34-3.822.02-2.401 1.37-3.832 1.35-1.43 3.652-1.43 2.361 0 3.702 1.41 1.34 1.41 1.34 3.852 0 2.4-1.35 3.831-1.351 1.431-3.692 1.431zm0-2.24q2.381 0 2.381-3.022t-2.381-3.022q-1.14 0-1.75.76-.611.761-.611 2.262 0 3.021 2.36 3.021zM164.655 41.7q-2.602 0-4.182-1.52l1.08-1.721q1.46 1.18 2.981 1.18.66 0 1.111-.26.45-.26.45-.72 0-.16-.06-.3-.06-.14-.19-.26t-.25-.2q-.12-.08-.36-.18-.24-.1-.39-.15-.15-.05-.46-.15-.31-.1-.45-.14-1.401-.481-2.152-1.121-.75-.64-.75-1.801 0-1.48 1.13-2.311 1.13-.83 2.912-.83 2.16 0 3.761 1.16l-1.04 1.7q-1.38-.84-2.601-.84-.66 0-1.06.25t-.4.65q0 .32.3.57.3.251.55.341.25.09.91.31.68.22 1.01.34.33.12.89.41.561.29.831.58.27.291.49.761.22.47.22 1.05 0 1.501-1.24 2.352-1.24.85-3.041.85zM171.938 41.68q-.68 0-1.12-.44-.44-.44-.44-1.14t.43-1.131q.43-.43 1.13-.43t1.13.43q.43.43.43 1.13t-.43 1.14q-.43.441-1.13.441zM179.761 41.72q-2.1 0-3.511-1.38-1.41-1.381-1.41-3.822 0-2.421 1.41-3.862 1.41-1.44 3.731-1.44 1.401 0 2.522.59 1.12.59 1.72 1.79l-2.06 1.161q-.7-1.3-2.142-1.3-1.06 0-1.76.76t-.7 2.28q0 1.501.67 2.232.67.73 1.71.73 1.441 0 2.422-1.56l1.98 1.14q-.6 1.24-1.79 1.96-1.19.721-2.792.721zM190.106 41.74q-2.321 0-3.682-1.44-1.36-1.441-1.34-3.822.02-2.401 1.37-3.832 1.351-1.43 3.652-1.43 2.361 0 3.702 1.41 1.34 1.41 1.34 3.852 0 2.4-1.35 3.831t-3.692 1.431zm0-2.24q2.381 0 2.381-3.022t-2.381-3.022q-1.14 0-1.75.76-.611.761-.611 2.262 0 3.021 2.361 3.021zM209.815 31.215q1.5 0 2.381.85.88.851.88 2.432v6.983h-2.78v-6.383q0-.82-.291-1.22-.29-.4-1.01-.4-1.321 0-2.542 1.08v6.923h-2.78v-6.383q0-.82-.301-1.22-.3-.4-1.02-.4-1.221 0-2.542 1.14v6.863h-2.78V31.475h2.58v1.261q1.821-1.52 3.682-1.52 2.02 0 2.781 1.46 1.781-1.46 3.742-1.46z" stroke-width=".02001"/></g><g fill="#50606B" stroke="#50606B"><path d="M5.703 65.75q-2.321 0-3.682-1.44Q.66 62.868.68 60.487q.02-2.401 1.37-3.832 1.35-1.43 3.652-1.43 2.36 0 3.701 1.41 1.34 1.41 1.34 3.852 0 2.4-1.35 3.831T5.703 65.75zm0-2.24q2.38 0 2.38-3.022t-2.38-3.022q-1.14 0-1.751.76-.61.761-.61 2.262 0 3.021 2.36 3.021zM19.249 55.485h2.68V65.49h-2.58v-1.1q-1.701 1.34-3.562 1.34-1.48 0-2.35-.84-.871-.84-.871-2.441v-6.964h2.72v6.343q0 1.641 1.362 1.641 1.22 0 2.6-1.16zM35.016 55.225q1.54 0 2.41.85.871.851.871 2.432v6.983h-2.76v-6.343q0-.86-.321-1.26-.32-.4-1.02-.4-1.201 0-2.562 1.04v6.963h-2.801V55.485h2.581v1.061q1.761-1.32 3.602-1.32zM45.12 65.75q-2.32 0-3.681-1.44-1.36-1.441-1.34-3.822.02-2.401 1.37-3.832 1.35-1.43 3.651-1.43 2.361 0 3.702 1.41 1.34 1.41 1.34 3.852 0 2.4-1.35 3.831T45.12 65.75zm0-2.24q2.381 0 2.381-3.022t-2.38-3.022q-1.141 0-1.751.76-.61.761-.61 2.262 0 3.021 2.36 3.021zM60.948 65.73q-2.101 0-3.512-1.38-1.41-1.381-1.41-3.822 0-2.421 1.41-3.862 1.41-1.44 3.732-1.44 1.4 0 2.52.59 1.121.59 1.722 1.79l-2.061 1.161q-.7-1.3-2.141-1.3-1.06 0-1.761.76-.7.76-.7 2.28 0 1.501.67 2.232.67.73 1.71.73 1.441 0 2.422-1.56l1.98 1.14q-.6 1.24-1.79 1.96-1.19.721-2.791.721zM71.052 55.225q2.021 0 3.222 1.09 1.2 1.091 1.2 3.072v6.103h-2.4v-1.3q-1.141 1.54-3.242 1.54-1.541 0-2.492-.85-.95-.85-.95-2.251 0-1.721 1.38-2.511 1.381-.79 3.502-.79.9 0 1.701.12v-.14q0-.941-.58-1.431-.58-.49-1.54-.49-1.562 0-3.042 1.14l-1.16-1.7q1.7-1.602 4.401-1.602zm-.56 8.484q1.08 0 1.74-.74.661-.74.741-1.921-.78-.06-1.5-.06-2.382 0-2.382 1.46 0 .56.38.911.38.35 1.02.35zM83.958 55.225q1.54 0 2.411.85.87.851.87 2.432v6.983h-2.76v-6.343q0-.86-.32-1.26-.321-.4-1.021-.4-1.2 0-2.562 1.04v6.963h-2.8V55.485h2.58v1.061q1.761-1.32 3.602-1.32zM93.642 55.225q2.021 0 3.222 1.09 1.2 1.091 1.2 3.072v6.103h-2.4v-1.3q-1.141 1.54-3.242 1.54-1.54 0-2.491-.85-.95-.85-.95-2.251 0-1.721 1.38-2.511t3.501-.79q.9 0 1.701.12v-.14q0-.941-.58-1.431-.58-.49-1.54-.49-1.561 0-3.042 1.14l-1.16-1.7q1.7-1.602 4.401-1.602zm-.56 8.484q1.08 0 1.74-.74.661-.74.741-1.921-.78-.06-1.5-.06-2.382 0-2.382 1.46 0 .56.38.911.38.35 1.021.35zM100.345 65.49V51.204h2.742V65.49zM116.613 51.204h2.701V65.49h-2.541v-.88q-1.3 1.14-2.981 1.14-1.821 0-3.062-1.4-1.24-1.401-1.24-3.702 0-2.461 1.37-3.942 1.37-1.48 3.452-1.48 1.28 0 2.3.62zm-2.181 12.305q1.22 0 2.18-.98v-4.282q-.9-.78-1.98-.78-1.06 0-1.71.81-.651.81-.651 2.33 0 1.301.56 2.102.56.8 1.6.8zM126.217 65.75q-2.32 0-3.682-1.44-1.36-1.441-1.34-3.822.02-2.401 1.37-3.832 1.351-1.43 3.652-1.43 2.361 0 3.702 1.41 1.34 1.41 1.34 3.852 0 2.4-1.35 3.831t-3.692 1.431zm0-2.24q2.381 0 2.381-3.022t-2.38-3.022q-1.141 0-1.752.76-.61.761-.61 2.262 0 3.021 2.361 3.021zM148.687 51.204l-4.882 9.084v5.202h-2.861v-5.202l-4.862-9.084h3.101l3.201 6.382 3.242-6.382zM152.489 65.75q-2.321 0-3.682-1.44-1.36-1.441-1.34-3.822.02-2.401 1.37-3.832 1.351-1.43 3.652-1.43 2.361 0 3.702 1.41 1.34 1.41 1.34 3.852 0 2.4-1.35 3.831t-3.692 1.431zm0-2.24q2.381 0 2.381-3.022t-2.381-3.022q-1.14 0-1.75.76-.611.761-.611 2.262 0 3.021 2.361 3.021zM166.035 55.485h2.681V65.49h-2.58v-1.1q-1.702 1.34-3.562 1.34-1.481 0-2.351-.84-.87-.84-.87-2.441v-6.964h2.72v6.343q0 1.641 1.361 1.641 1.22 0 2.601-1.16zM179.641 51.204v2.4h-4.062V65.49h-2.88V53.605h-4.103v-2.401zM186.164 55.485h2.681V65.49h-2.58v-1.1q-1.701 1.34-3.562 1.34-1.481 0-2.351-.84-.87-.84-.87-2.441v-6.964h2.72v6.343q0 1.641 1.361 1.641 1.22 0 2.601-1.16zM196.93 55.285q1.84 0 3.01 1.331 1.171 1.33 1.171 3.532 0 2.54-1.47 4.071-1.471 1.531-4.113 1.531-2.54 0-4.321-1.1V51.204h2.74v5.122q1.381-1.04 2.982-1.04zm-1.402 8.244q1.361 0 2.081-.88t.72-2.421q0-1.261-.52-2.001t-1.58-.74q-1.26 0-2.281 1.02v4.762q.78.26 1.58.26zM207.654 63.55q1.58 0 3.021-1.061l1.1 1.76q-1.88 1.481-4.301 1.481-2.301 0-3.662-1.43-1.36-1.431-1.36-3.672 0-2.261 1.4-3.832 1.4-1.57 3.822-1.57 1.76 0 2.981.93 1.22.93 1.22 2.55 0 1.241-.77 2.052-.77.81-2.37.81h-3.722q.42 1.981 2.641 1.981zm0-6.264q-.98 0-1.74.64-.761.64-.961 1.801h3.201q.6 0 .93-.3.33-.3.33-.8 0-.56-.49-.95-.49-.39-1.27-.39z" stroke-width=".02001"/></g><g fill="#50606B" stroke="#50606B"><path d="M2.541 75.794q.58 0 .97.41t.39 1.03q0 .64-.46 1.08-.46.441-1.12.441-.74 0-1.24-.56t-.5-1.48q0-1.081.76-2.132.76-1.05 2.1-1.75l.68 1.12q-1.52.8-1.98 1.88.24-.04.4-.04zM19.729 75.133q.66 0 1.09.27.43.27.43.811V89.5h-2.8v-9.224l-3.382 6.523h-2.581l-3.402-6.523V89.5H6.283V76.234q0-.54.44-.82.44-.28 1.1-.28.8 0 1.151.27.35.27.77 1.05l4.042 7.724 4.042-7.724q.4-.78.75-1.05t1.15-.27zM27.973 79.235q2.02 0 3.221 1.09 1.2 1.091 1.2 3.072V89.5h-2.4v-1.3q-1.14 1.54-3.242 1.54-1.54 0-2.491-.85-.95-.85-.95-2.251 0-1.721 1.38-2.511t3.502-.79q.9 0 1.7.12v-.14q0-.941-.58-1.431-.58-.49-1.54-.49-1.561 0-3.042 1.14l-1.16-1.7q1.7-1.602 4.402-1.602zm-.56 8.484q1.08 0 1.74-.74.66-.74.74-1.921-.78-.06-1.5-.06-2.381 0-2.381 1.46 0 .56.38.911.38.35 1.02.35zM37.237 77.845l-.22.225q-.22.225-.96.225-.741 0-1.171-.44-.43-.44-.43-1.2 0-.761.43-1.201.43-.44 1.17-.44t1.18.45q.441.45.441 1.19t-.44 1.19zM34.696 89.5V79.495h2.7V89.5zM43.2 89.72q-2.602 0-4.182-1.52l1.08-1.721q1.46 1.18 2.981 1.18.66 0 1.111-.26.45-.26.45-.72 0-.16-.06-.3-.06-.14-.19-.26t-.25-.2q-.12-.08-.36-.18-.24-.1-.39-.15-.15-.05-.46-.15-.31-.1-.45-.14-1.401-.481-2.152-1.121-.75-.64-.75-1.801 0-1.48 1.13-2.311 1.13-.83 2.912-.83 2.16 0 3.761 1.16l-1.04 1.7q-1.38-.84-2.601-.84-.66 0-1.06.25t-.4.65q0 .32.3.57.3.251.55.341.25.09.91.31.68.22 1.01.34.33.12.89.41.561.29.831.58.27.291.49.761.22.47.22 1.05 0 1.501-1.24 2.352-1.24.85-3.041.85zM54.185 89.5V76.374q0-.52.36-.84.36-.32.88-.32h4.222q2.121 0 3.722.98 1.6.98 2.4 2.581.801 1.6.801 3.522 0 3.021-1.86 5.112-1.862 2.091-5.083 2.091zm2.88-2.401h2.362q1.92 0 3.101-1.35 1.18-1.351 1.18-3.452 0-1.961-1.13-3.322-1.13-1.36-3.051-1.36h-2.461zM71.032 77.845l-.22.225q-.22.225-.96.225t-1.17-.44q-.431-.44-.431-1.2 0-.761.43-1.201.43-.44 1.17-.44t1.181.45q.44.45.44 1.19t-.44 1.19zM68.491 89.5V79.495h2.701V89.5zM80.556 75.934l-3.781 2.761-1.14-1.32 3.38-3.282zm-2.86 3.301q2.02 0 3.22 1.09 1.201 1.091 1.201 3.072V89.5h-2.4v-1.3q-1.141 1.54-3.242 1.54-1.541 0-2.492-.85-.95-.85-.95-2.251 0-1.721 1.38-2.511 1.381-.79 3.502-.79.9 0 1.701.12v-.14q0-.941-.58-1.431-.58-.49-1.54-.49-1.562 0-3.042 1.14l-1.16-1.7q1.7-1.602 4.401-1.602zm-.561 8.484q1.08 0 1.74-.74.661-.74.741-1.921-.78-.06-1.5-.06-2.382 0-2.382 1.46 0 .56.38.911.38.35 1.02.35zM84.398 89.5V75.214h2.741V89.5zM94.063 89.76q-2.321 0-3.682-1.44-1.36-1.441-1.34-3.822.02-2.401 1.37-3.832 1.35-1.43 3.652-1.43 2.36 0 3.701 1.41 1.34 1.41 1.34 3.852 0 2.4-1.35 3.831t-3.691 1.431zm0-2.24q2.38 0 2.38-3.022t-2.38-3.022q-1.14 0-1.751.76-.61.761-.61 2.262 0 3.021 2.36 3.021zM110.51 79.776q-.5.62-1.48 1.16.52.76.52 1.8 0 1.542-1.211 2.452-1.21.91-3.271.91-.78 0-1.521-.16-.38.2-.38.56 0 .38.4.57.4.191 1.3.291 2.822.32 3.622.66 1.72.7 1.72 2.461 0 1.641-1.38 2.472-1.38.83-3.861.83-2.201 0-3.512-.75-1.31-.75-1.31-2.131 0-1.541 1.64-2.201-.88-.62-.88-1.641 0-1.08 1.06-1.8-1.24-.861-1.24-2.482 0-1.6 1.21-2.551 1.21-.95 3.212-.95 1.32 0 2.32.42 1.021-.46 1.821-1.341zm-5.402 4.442q.94 0 1.48-.39t.54-1.111q0-.72-.53-1.12-.53-.4-1.47-.4t-1.471.41q-.53.41-.53 1.15 0 1.46 1.98 1.46zm2.54 6.423q0-.52-.52-.73-.52-.21-1.66-.331-1.26-.12-1.781-.2-1.04.5-1.04 1.22 0 1.261 2.44 1.261 2.562 0 2.562-1.22zM116.173 89.76q-2.321 0-3.682-1.44-1.36-1.441-1.34-3.822.02-2.401 1.37-3.832 1.35-1.43 3.652-1.43 2.36 0 3.701 1.41 1.34 1.41 1.34 3.852 0 2.4-1.35 3.831t-3.691 1.431zm0-2.24q2.38 0 2.38-3.022t-2.38-3.022q-1.14 0-1.751.76-.61.761-.61 2.262 0 3.021 2.36 3.021zM126.417 89.72q-2.601 0-4.182-1.52l1.08-1.721q1.461 1.18 2.982 1.18.66 0 1.11-.26.45-.26.45-.72 0-.16-.06-.3-.06-.14-.19-.26t-.25-.2q-.12-.08-.36-.18-.24-.1-.39-.15-.15-.05-.46-.15-.31-.1-.45-.14-1.4-.481-2.151-1.121-.75-.64-.75-1.801 0-1.48 1.13-2.311 1.13-.83 2.911-.83 2.161 0 3.762 1.16l-1.04 1.7q-1.381-.84-2.602-.84-.66 0-1.06.25t-.4.65q0 .32.3.57.3.251.55.341.25.09.91.31.68.22 1.011.34.33.12.89.41t.83.58q.271.291.491.761.22.47.22 1.05 0 1.501-1.24 2.352-1.241.85-3.042.85zM133.16 72.792q.76 0 1.25.55.491.55.491 1.431 0 1.12-.76 2.181-.76 1.06-2.101 1.761l-.66-1.1q1.52-.8 1.96-1.901-.24.04-.38.04-.6 0-.99-.42t-.39-1.02q0-.661.46-1.091.46-.43 1.12-.43z" stroke-width=".02001"/></g></svg>