<svg width="194" height="77" viewBox="0 0 194 77" xmlns="http://www.w3.org/2000/svg"><g fill="#50606B" stroke="#50606B"><path d="M1.999 22.37V5.56q0-.666.46-1.076.462-.41 1.128-.41h5.407q2.716 0 4.766 1.256 2.05 1.255 3.075 3.305 1.025 2.05 1.025 4.51 0 3.87-2.383 6.547-2.383 2.678-6.508 2.678zm3.69-3.075h3.023q2.46 0 3.972-1.73t1.512-4.42q0-2.511-1.448-4.253Q11.3 7.149 8.84 7.149H5.69zM25.496 9.225q2.588 0 4.126 1.396 1.537 1.397 1.537 3.934v7.815h-3.075v-1.666q-1.46 1.973-4.15 1.973-1.974 0-3.191-1.089-1.217-1.089-1.217-2.882 0-2.204 1.768-3.216t4.484-1.012q1.153 0 2.178.153v-.179q0-1.204-.743-1.832-.743-.628-1.973-.628-1.999 0-3.895 1.46l-1.486-2.177q2.178-2.05 5.637-2.05zm-.717 10.864q1.384 0 2.23-.948.845-.948.947-2.46-1-.077-1.922-.077-3.049 0-3.049 1.871 0 .718.487 1.166.487.448 1.307.448zM42.05 18.86l1.102 2.485q-1.717 1.307-4.023 1.307-2.076 0-3.23-1.23-1.152-1.23-1.152-3.46v-5.996h-1.922V9.558h1.922V5.586h3.485v3.972h4.15v2.408h-4.15v5.69q0 1.024.525 1.46.525.435 1.243.435 1 0 2.05-.692zM49.711 9.225q2.589 0 4.126 1.396 1.537 1.397 1.537 3.934v7.815H52.3v-1.666q-1.461 1.973-4.152 1.973-1.973 0-3.19-1.089-1.217-1.089-1.217-2.882 0-2.204 1.768-3.216t4.484-1.012q1.153 0 2.178.153v-.179q0-1.204-.743-1.832-.743-.628-1.973-.628-1.998 0-3.895 1.46l-1.486-2.177q2.178-2.05 5.637-2.05zm-.717 10.864q1.384 0 2.23-.948.845-.948.947-2.46-.999-.077-1.921-.077-3.05 0-3.05 1.871 0 .718.487 1.166.487.448 1.307.448zM62.652 22.652q-3.331 0-5.356-1.948l1.384-2.203q1.87 1.512 3.818 1.512.846 0 1.422-.334.577-.333.577-.922 0-.205-.077-.384-.077-.18-.244-.334-.166-.153-.32-.256-.154-.102-.461-.23-.308-.129-.5-.193t-.59-.192q-.396-.128-.576-.18-1.793-.614-2.754-1.434-.961-.82-.961-2.306 0-1.897 1.448-2.96 1.447-1.063 3.728-1.063 2.767 0 4.817 1.486l-1.332 2.178q-1.768-1.076-3.331-1.076-.846 0-1.358.32-.513.32-.513.833 0 .41.384.73.385.32.705.436.32.115 1.166.397.871.282 1.294.436.423.153 1.14.525.718.371 1.064.743.346.371.628.974.281.602.281 1.345 0 1.922-1.588 3.01-1.589 1.09-3.895 1.09zM72.312 13.58q-.871 0-1.435-.563-.563-.564-.563-1.46 0-.897.55-1.448.551-.551 1.448-.551.897 0 1.448.55.551.552.551 1.448 0 .897-.55 1.461-.552.564-1.449.564zm0 9.046q-.871 0-1.435-.563-.563-.564-.563-1.461 0-.897.55-1.448.551-.55 1.448-.55.897 0 1.448.55.551.551.551 1.448 0 .897-.55 1.46-.552.564-1.449.564zM90.557 22.652q-3.639 0-5.51-2.55-1.87-2.55-1.87-6.88 0-4.356 1.87-6.919 1.871-2.562 5.51-2.562 3.613 0 5.47 2.562 1.858 2.563 1.858 6.92 0 4.33-1.857 6.88-1.858 2.549-5.471 2.549zm0-3.178q3.741 0 3.741-6.252 0-6.304-3.741-6.304-3.767 0-3.767 6.304 0 6.252 3.767 6.252zM109.75 4.074q.922 0 1.332.948.41.948-.077 2.127L104.6 22.37h-4.023l6.765-15.17h-8.149V4.074zM111.44 18.731q.949 0 1.551.705t.602 1.755q0 1.486-.973 2.921-.974 1.435-2.691 2.358l-.974-1.46q1.666-1.154 2.409-2.538h-.18q-.768 0-1.255-.525-.487-.525-.487-1.294 0-.82.577-1.37.576-.552 1.422-.552zM127.38 3.767q.896 0 1.332.41.435.41.435.973v17.22h-3.638V8.482l-3.229 2.306-1.973-2.46 5.176-3.87q.974-.691 1.896-.691zM145.24 15.375v2.972h-1.897v4.023h-3.433v-4.023h-7.406q-.512 0-.858-.513-.346-.512-.346-1.153 0-.691.359-1.204l8.123-11.019q.46-.64 1.716-.64.77 0 1.307.359.538.358.538 1.05v10.148zm-9.738 0h4.408v-6.1zM149.237 18.731q.948 0 1.55.705.602.705.602 1.755 0 1.486-.973 2.921-.974 1.435-2.69 2.358l-.975-1.46q1.666-1.154 2.41-2.538h-.18q-.769 0-1.256-.525t-.487-1.294q0-.82.577-1.37.576-.552 1.422-.552zM164.355 17.22q-.845 1.05-1.025 1.998h7.918v3.152h-11.864q-.102-2.537.359-4.1.461-1.563 1.64-2.947.82-1 2.883-2.613 2.062-1.615 2.216-1.743 1.153-1 1.153-2.024 0-.871-.653-1.435-.654-.564-1.679-.564-1.076 0-2.075.692-1 .692-1.614 1.742L159 7.585q.922-1.743 2.562-2.819 1.64-1.076 3.844-1.076 2.64 0 4.28 1.396 1.64 1.397 1.64 3.677 0 2.127-1.666 3.87-.846.845-2.742 2.28-1.896 1.435-2.563 2.306zM179.423 3.767q.896 0 1.332.41.436.41.436.973v17.22h-3.639V8.482l-3.229 2.306-1.973-2.46 5.176-3.87q.974-.691 1.897-.691z" stroke-width=".02562"/></g><g fill="#50606B" stroke="#50606B"><path d="M7.508 50.634q2.024 0 3.87-1.358l1.409 2.255q-2.41 1.896-5.51 1.896-2.946 0-4.689-1.832Q.846 49.763.846 46.893q0-2.895 1.793-4.907 1.794-2.011 4.895-2.011 2.255 0 3.818 1.191 1.563 1.192 1.563 3.267 0 1.589-.987 2.627-.986 1.038-3.036 1.038H4.126q.538 2.536 3.382 2.536zm0-8.02q-1.256 0-2.23.82-.973.82-1.23 2.306h4.1q.77 0 1.192-.384.423-.385.423-1.025 0-.718-.628-1.217-.628-.5-1.627-.5zM25.701 47.97q-.845 1.05-1.025 1.998h7.918v3.152H20.73q-.102-2.537.359-4.1.461-1.563 1.64-2.947.82-1 2.883-2.613 2.062-1.615 2.216-1.743 1.153-1 1.153-2.024 0-.871-.653-1.435-.654-.564-1.679-.564-1.076 0-2.075.692-1 .692-1.614 1.742l-2.614-1.793q.922-1.743 2.562-2.819 1.64-1.076 3.844-1.076 2.64 0 4.28 1.396 1.64 1.397 1.64 3.677 0 2.127-1.666 3.87-.846.845-2.742 2.28-1.896 1.435-2.563 2.306zM44.817 43.46q1.691.615 2.69 1.832 1 1.217 1 2.882 0 2.179-1.82 3.729-1.819 1.55-5.022 1.55-3.203 0-5.035-1.55-1.832-1.55-1.832-3.729 0-1.665 1-2.882.999-1.217 2.69-1.807-2.947-1.358-2.947-4.074 0-2.024 1.653-3.472t4.471-1.448q2.82 0 4.46 1.448 1.639 1.448 1.639 3.472 0 2.716-2.947 4.049zm-3.126-5.945q-1.179 0-1.922.64-.743.64-.743 1.64 0 1 .743 1.64.743.64 1.922.64 1.153 0 1.883-.64t.73-1.64q0-1-.73-1.64-.73-.64-1.883-.64zm-2.306 12.159l.448.377q.449.378 1.832.378 1.384 0 2.281-.755.897-.756.897-1.91 0-1.153-.897-1.896-.897-.743-2.28-.743-1.384 0-2.281.743-.897.743-.897 1.896 0 1.154.897 1.91zM53.683 53.12h-3.69l10.788-18.296h3.665zM71.082 53.402q-3.638 0-5.509-2.55-1.87-2.55-1.87-6.88 0-4.356 1.87-6.919 1.87-2.562 5.51-2.562 3.612 0 5.47 2.562 1.858 2.563 1.858 6.92 0 4.33-1.858 6.88-1.858 2.549-5.47 2.549zm0-3.178q3.741 0 3.741-6.252 0-6.304-3.74-6.304-3.768 0-3.768 6.304 0 6.252 3.767 6.252zM88.789 43.485q1.384.513 2.178 1.743t.794 2.69q0 2.537-1.973 4.023-1.973 1.486-4.69 1.486-2.228 0-3.868-.935-1.64-.935-2.383-2.447l2.434-1.922q1.255 2.05 3.741 2.05 1.41 0 2.293-.717.884-.718.884-1.717 0-1.128-.87-1.743-.872-.615-2.23-.615H82.51v-2.998h2.075q1.487 0 2.358-.717.871-.718.871-1.743 0-.948-.705-1.588-.704-.64-1.934-.64-2.025 0-3.331 1.895l-2.537-1.717q.897-1.563 2.498-2.498 1.602-.935 3.652-.935 2.588 0 4.266 1.448 1.679 1.447 1.679 3.574 0 1.281-.692 2.332-.692 1.05-1.922 1.691z" stroke-width=".02562"/></g></svg>