<svg width="200" height="36" viewBox="0 0 200 36" xmlns="http://www.w3.org/2000/svg"><g fill="#50606B" stroke="#50606B"><path d="M2.02 24.88V6.624h3.682v7.517h7.67V6.624h3.682V24.88h-3.682v-7.491h-7.67v7.491zM26.08 25.212q-2.967 0-4.705-1.84-1.739-1.841-1.713-4.884.025-3.068 1.751-4.896 1.726-1.828 4.666-1.828 3.017 0 4.73 1.802 1.713 1.803 1.713 4.922 0 3.068-1.725 4.896-1.726 1.828-4.718 1.828zm0-2.863q3.042 0 3.042-3.861 0-3.86-3.043-3.86-1.457 0-2.237.97-.78.972-.78 2.89 0 3.86 3.017 3.86zM42.162 11.764q1.15 0 1.943.46l-.716 2.761q-.895-.281-1.56-.281-1.84 0-3.375 1.432v8.744h-3.528V12.096h3.4v1.483q1.74-1.815 3.836-1.815zM54.255 7.545l-4.832 3.528-1.457-1.687 4.32-4.193zM50.6 11.764q2.582 0 4.117 1.393 1.534 1.394 1.534 3.925v7.798H53.18v-1.662q-1.457 1.969-4.142 1.969-1.968 0-3.183-1.087-1.214-1.086-1.214-2.876 0-2.2 1.764-3.209 1.764-1.01 4.474-1.01 1.15 0 2.174.153v-.179q0-1.201-.742-1.828-.741-.626-1.969-.626-1.994 0-3.886 1.457l-1.483-2.173q2.173-2.045 5.625-2.045zm-.716 10.84q1.38 0 2.225-.946.843-.946.946-2.454-.998-.077-1.918-.077-3.043 0-3.043 1.867 0 .716.486 1.163.486.447 1.304.447zM66.426 11.764q1.15 0 1.943.46l-.716 2.761q-.895-.281-1.56-.281-1.84 0-3.375 1.432v8.744H59.19V12.096h3.4v1.483q1.74-1.815 3.836-1.815zM73.124 9.987l-.28.287q-.282.288-1.228.288t-1.496-.563q-.55-.562-.55-1.534 0-.971.55-1.534.55-.562 1.496-.562t1.508.575q.563.575.563 1.521t-.563 1.522zM69.877 24.88V12.096h3.452V24.88zM82.176 25.212q-2.966 0-4.705-1.84-1.739-1.841-1.713-4.884.026-3.068 1.751-4.896 1.726-1.828 4.667-1.828 3.017 0 4.73 1.802 1.713 1.803 1.713 4.922 0 3.068-1.726 4.896-1.726 1.828-4.717 1.828zm0-2.863q3.042 0 3.042-3.861 0-3.86-3.042-3.86-1.458 0-2.238.97-.78.972-.78 2.89 0 3.86 3.018 3.86zM92.837 16.11q-.869 0-1.431-.562-.563-.563-.563-1.458t.55-1.444q.55-.55 1.444-.55.895 0 1.445.55t.55 1.444q0 .895-.55 1.458-.55.562-1.445.562zm0 9.026q-.869 0-1.431-.563-.563-.562-.563-1.457t.55-1.445q.55-.55 1.444-.55.895 0 1.445.55t.55 1.445q0 .895-.55 1.457-.55.563-1.445.563zM109.508 6.318q.895 0 1.33.409.434.409.434.971V24.88h-3.63V11.022l-3.222 2.301-1.969-2.454 5.165-3.861q.971-.69 1.892-.69zM124.26 6.624q.92 0 1.33.946.41.946-.077 2.123l-6.392 15.187h-4.014l6.75-15.136h-8.13v-3.12zM135.562 11.764q1.968 0 3.08 1.086 1.113 1.087 1.113 3.107v8.923h-3.529v-8.105q0-1.1-.409-1.61-.409-.512-1.304-.512-1.534 0-3.272 1.33v8.897h-3.58V6.624h3.58v6.623q2.122-1.483 4.32-1.483zM151.695 15.266q1.38.512 2.173 1.74.793 1.226.793 2.684 0 2.53-1.969 4.014-1.969 1.483-4.679 1.483-2.224 0-3.86-.933-1.637-.934-2.378-2.442l2.429-1.918q1.252 2.046 3.732 2.046 1.407 0 2.289-.716.882-.716.882-1.713 0-1.125-.87-1.739-.869-.614-2.224-.614h-2.582v-2.991h2.07q1.484 0 2.353-.716.87-.716.87-1.739 0-.946-.704-1.585-.703-.639-1.93-.639-2.02 0-3.324 1.892l-2.531-1.713q.895-1.56 2.493-2.493 1.598-.933 3.643-.933 2.582 0 4.257 1.445 1.675 1.444 1.675 3.566 0 1.279-.69 2.327t-1.918 1.687zM164.274 25.161q-3.63 0-5.497-2.544-1.866-2.544-1.866-6.865 0-4.346 1.866-6.903 1.867-2.557 5.497-2.557 3.605 0 5.46 2.557 1.853 2.557 1.853 6.903 0 4.321-1.854 6.865-1.854 2.544-5.459 2.544zm0-3.17q3.733 0 3.733-6.239 0-6.29-3.733-6.29-3.758 0-3.758 6.29 0 6.239 3.758 6.239z" stroke-width=".02557"/></g></svg>