<svg width="225" height="26" viewBox="0 0 225 26" xmlns="http://www.w3.org/2000/svg"><g fill="#50606B" stroke="#50606B"><path d="M9.617 1.472q3.205 0 4.911 1.784 1.706 1.784 1.706 4.498 0 3.05-1.77 4.666-1.771 1.616-5.132 1.616H6.566v5.894H1.732V3.308q0-.802.53-1.319.53-.517 1.331-.517zm-.543 8.686q2.352 0 2.352-2.404 0-1.111-.633-1.745-.634-.633-1.745-.633H6.566v4.782zM25.98 6.668q1.37 0 2.275.595l-1.034 3.516q-.879-.388-1.732-.388-1.603 0-2.999 1.086v8.453h-4.653V7.004h4.472v1.37q1.707-1.706 3.671-1.706zM35.493 16.724q1.81 0 3.749-1.163l1.654 2.921q-2.507 1.758-5.713 1.758-3.283 0-5.04-1.939-1.759-1.938-1.759-4.679 0-2.895 1.875-4.924 1.874-2.03 4.95-2.03 2.482 0 4.11 1.228 1.629 1.228 1.629 3.296 0 1.707-1.073 2.87t-3.477 1.163h-3.774q.646 1.5 2.87 1.5zm-.206-6.643q-.905 0-1.707.568-.8.57-1.111 1.655h2.792q.801 0 1.189-.349t.388-.788q0-.466-.427-.776-.426-.31-1.124-.31zM47.695 20.214q-3.412 0-5.635-1.913l1.654-2.87q2.016 1.423 3.697 1.423.594 0 .93-.207.336-.207.336-.517 0-.13-.051-.246-.052-.116-.194-.22-.142-.103-.272-.18-.129-.078-.374-.181-.246-.104-.427-.168-.18-.065-.504-.168-.323-.104-.53-.181-1.732-.62-2.65-1.487-.917-.866-.917-2.313 0-1.991 1.538-3.154 1.538-1.164 4.045-1.164 3.077 0 5.248 1.577l-1.603 2.792q-1.887-1.085-3.36-1.085-.595 0-.918.193-.323.194-.323.479 0 .336.388.543.387.206 1.344.542 2.197.776 2.973 1.319 1.473 1.086 1.473 2.87 0 2.016-1.693 3.166t-4.175 1.15zM62.042 16.724q1.81 0 3.749-1.163l1.654 2.921q-2.507 1.758-5.713 1.758-3.283 0-5.04-1.939-1.759-1.938-1.759-4.679 0-2.895 1.875-4.924 1.874-2.03 4.95-2.03 2.482 0 4.11 1.228 1.629 1.228 1.629 3.296 0 1.707-1.073 2.87t-3.477 1.163h-3.774q.646 1.5 2.87 1.5zm-.206-6.643q-.905 0-1.707.568-.8.57-1.111 1.655h2.792q.801 0 1.189-.349t.388-.788q0-.466-.427-.776-.426-.31-1.124-.31zM78.148 6.668q2.042 0 3.231 1.125 1.19 1.124 1.19 3.296v8.841h-4.68v-7.781q0-1.81-1.422-1.81-1.085 0-2.249.905v8.686h-4.705V7.004h4.266V8.09q2.12-1.422 4.369-1.422zM90.892 20.214q-2.688 0-4.588-1.693t-1.9-4.95q0-3.206 1.926-5.054 1.925-1.849 5.002-1.849 1.783 0 3.296.789 1.512.788 2.34 2.417l-3.413 1.81q-.724-1.345-2.12-1.345-1.034 0-1.745.763-.71.762-.71 2.417 0 1.551.671 2.262.672.71 1.655.71 1.5 0 2.507-1.731l3.335 1.758q-1.784 3.696-6.256 3.696zM102.887 5.027l-.349.355q-.349.356-1.538.356-1.19 0-1.887-.711-.698-.711-.698-1.926 0-1.215.698-1.926.698-.71 1.887-.71 1.19 0 1.887.71.698.711.698 1.926 0 1.215-.698 1.926zM98.7 19.93V7.004h4.602V19.93zM111.521 6.668q2.663 0 4.317 1.422 1.655 1.422 1.655 3.955v7.885h-3.981v-1.37q-1.474 1.654-3.878 1.654-2.016 0-3.231-1.085-1.215-1.086-1.215-2.922 0-1.525.943-2.533.944-1.008 2.314-1.396 1.37-.388 3.102-.388 1.008 0 1.732.104 0-.93-.633-1.383-.633-.453-1.59-.453-1.835 0-3.8 1.37l-1.732-2.766q1.06-.956 2.675-1.525 1.616-.569 3.322-.569zm-.594 10.212q.905 0 1.564-.634.659-.633.762-1.719h-1.447q-2.12 0-2.12 1.241 0 .491.323.801.323.31.918.31zM119.871 19.93V1.472h4.653V19.93zM144.068 6.668q1.964 0 3.192 1.138 1.228 1.137 1.228 3.283v8.841h-4.705v-7.859q0-.853-.297-1.292-.297-.44-1.099-.44-1.137 0-2.274.88v8.711h-4.705v-7.859q0-.853-.298-1.292-.297-.44-1.098-.44-1.138 0-2.275.88v8.711h-4.68V7.004h4.266v1.319q2.301-1.655 4.653-1.655 2.405 0 3.439 1.655 2.3-1.655 4.653-1.655zM157.407 16.724q1.81 0 3.748-1.163l1.655 2.921q-2.508 1.758-5.713 1.758-3.283 0-5.041-1.939-1.758-1.938-1.758-4.679 0-2.895 1.874-4.924 1.874-2.03 4.95-2.03 2.482 0 4.11 1.228 1.63 1.228 1.63 3.296 0 1.707-1.073 2.87t-3.477 1.163h-3.775q.647 1.5 2.87 1.5zm-.207-6.643q-.905 0-1.706.568-.801.57-1.112 1.655h2.792q.802 0 1.19-.349.387-.349.387-.788 0-.466-.426-.776-.427-.31-1.125-.31zM173.512 6.668q2.042 0 3.231 1.125 1.19 1.124 1.19 3.296v8.841h-4.68v-7.781q0-1.81-1.421-1.81-1.086 0-2.25.905v8.686h-4.704V7.004h4.265V8.09q2.12-1.422 4.37-1.422zM189.126 15.561l1.319 3.206q-1.888 1.447-4.55 1.447-2.198 0-3.503-1.292-1.306-1.293-1.306-3.671v-5.222h-1.654V7.004h1.654V2.998h4.602v4.006h3.878v3.025h-3.878v4.627q0 1.551 1.551 1.551 1.008 0 1.887-.646zM198.019 16.724q1.81 0 3.748-1.163l1.655 2.921q-2.508 1.758-5.713 1.758-3.283 0-5.041-1.939-1.758-1.938-1.758-4.679 0-2.895 1.874-4.924 1.874-2.03 4.95-2.03 2.482 0 4.11 1.228 1.63 1.228 1.63 3.296 0 1.707-1.073 2.87t-3.477 1.163h-3.775q.647 1.5 2.87 1.5zm-.207-6.643q-.905 0-1.706.568-.801.57-1.112 1.655h2.792q.802 0 1.19-.349.387-.349.387-.788 0-.466-.426-.776-.427-.31-1.125-.31z" stroke-width=".02585"/></g></svg>