<svg width="191" height="336" viewBox="0 0 191 336" xmlns="http://www.w3.org/2000/svg"><path stroke="#006F53" d="M4.276 19.198l-.291.296q-.291.297-1.209.297-.918 0-1.511-.593-.593-.593-.593-1.534 0-.918.593-1.51.593-.594 1.511-.594.918 0 1.5.593t.582 1.511q0 .94-.582 1.534z" fill="#006F53" stroke-width=".02239"/><path stroke="#EC6608" d="M9.806 19.198l-.291.296q-.291.297-1.21.297-.917 0-1.51-.593-.594-.593-.594-1.534 0-.918.594-1.51.593-.594 1.51-.594.919 0 1.5.593.583.593.583 1.511 0 .94-.582 1.534z" fill="#EC6608" stroke-width=".02239"/><g fill="#50606B" stroke="#50606B"><path d="M15.335 19.198l-.29.296q-.292.297-1.21.297-.917 0-1.51-.593-.594-.593-.594-1.534 0-.918.593-1.51.594-.594 1.511-.594.918 0 1.5.593.583.593.583 1.511 0 .94-.583 1.534zM22.79 19.746q-2.328 0-3.973-1.466-1.646-1.466-1.646-4.287 0-2.776 1.668-4.377 1.668-1.6 4.332-1.6 1.545 0 2.854.682 1.31.683 2.027 2.093l-2.956 1.567q-.626-1.164-1.835-1.164-.896 0-1.512.66-.615.661-.615 2.094 0 1.343.582 1.959.582.615 1.433.615 1.298 0 2.171-1.5l2.888 1.523q-1.544 3.201-5.418 3.201zM34.611 19.791q-2.709 0-4.287-1.612-1.578-1.612-1.556-4.276.022-2.709 1.578-4.298 1.556-1.59 4.265-1.59 2.799 0 4.332 1.567 1.534 1.567 1.534 4.321 0 2.687-1.568 4.287-1.567 1.601-4.298 1.601zm-2.015-5.888v1.366q0 1.365 2.015 1.365t2.015-2.73q0-2.732-2.015-2.732t-2.015 2.731zM56.887 8.015q1.701 0 2.764.985 1.064.985 1.064 2.843V19.5H56.64v-6.806q0-.739-.257-1.12-.258-.38-.952-.38-.985 0-1.97.761V19.5h-4.074v-6.806q0-.739-.258-1.12-.257-.38-.951-.38-.985 0-1.97.761V19.5h-4.052V8.306h3.694v1.142q1.992-1.433 4.03-1.433 2.081 0 2.977 1.433 1.992-1.433 4.03-1.433zM68.148 19.791q-2.71 0-4.288-1.612-1.578-1.612-1.556-4.276.023-2.709 1.579-4.298 1.556-1.59 4.265-1.59 2.798 0 4.332 1.567 1.533 1.567 1.533 4.321 0 2.687-1.567 4.287-1.567 1.601-4.298 1.601zm-2.015-5.888v1.366q0 1.365 2.015 1.365 2.014 0 2.014-2.73 0-2.732-2.014-2.732-2.015 0-2.015 2.731zM87.468 8.015q1.992 0 3.436 1.556t1.444 4.175q0 2.754-1.634 4.4-1.634 1.645-4.12 1.645-.917 0-1.768-.246v4.209H80.82V8.306h3.694v.672q1.365-.963 2.955-.963zm-1.254 8.597q.873 0 1.478-.761.604-.761.604-2.082 0-1.075-.436-1.825-.437-.75-1.355-.75-.828 0-1.679.672v4.522q.627.224 1.388.224zM98.953 8.015q2.306 0 3.738 1.232 1.433 1.23 1.433 3.425V19.5h-3.447v-1.187q-1.277 1.433-3.359 1.433-1.746 0-2.798-.94t-1.052-2.53q0-1.32.817-2.194.817-.873 2.004-1.209 1.186-.336 2.686-.336.873 0 1.5.09 0-.806-.548-1.198-.549-.391-1.377-.391-1.59 0-3.291 1.186l-1.5-2.395q.918-.829 2.317-1.321 1.4-.493 2.877-.493zm-.515 8.843q.783 0 1.354-.548.571-.549.66-1.489H99.2q-1.836 0-1.836 1.075 0 .425.28.694.28.268.795.268zM113.258 8.015q1.187 0 1.97.515l-.895 3.045q-.761-.336-1.5-.336-1.388 0-2.597.94V19.5h-4.03V8.306h3.873v1.187q1.478-1.478 3.18-1.478zM123.848 15.717l1.141 2.776q-1.634 1.253-3.94 1.253-1.903 0-3.033-1.12-1.13-1.118-1.13-3.178v-4.522h-1.434v-2.62h1.433v-3.47h3.985v3.47h3.358v2.62h-3.358v4.007q0 1.343 1.343 1.343.873 0 1.635-.56zM129.624 6.594l-.303.307q-.302.308-1.332.308t-1.634-.615q-.604-.616-.604-1.668t.604-1.668q.604-.616 1.634-.616 1.03 0 1.635.616.604.616.604 1.668t-.604 1.668zM125.997 19.5V8.306h3.985V19.5zM137.28 19.746q-2.328 0-3.974-1.466-1.645-1.466-1.645-4.287 0-2.776 1.668-4.377 1.668-1.6 4.332-1.6 1.544 0 2.854.682 1.31.683 2.026 2.093l-2.955 1.567q-.627-1.164-1.836-1.164-.895 0-1.51.66-.617.661-.617 2.094 0 1.343.583 1.959.582.615 1.432.615 1.299 0 2.172-1.5l2.888 1.523q-1.545 3.201-5.418 3.201zM147.668 6.594l-.302.307q-.303.308-1.332.308-1.03 0-1.635-.615-.604-.616-.604-1.668t.604-1.668q.605-.616 1.635-.616t1.634.616q.604.616.604 1.668t-.604 1.668zM144.04 19.5V8.306h3.985V19.5zM156.87 8.015q1.992 0 3.436 1.556t1.444 4.175q0 2.754-1.635 4.4-1.634 1.645-4.119 1.645-.918 0-1.769-.246v4.209h-4.007V8.306h3.694v.672q1.366-.963 2.955-.963zm-1.255 8.597q.874 0 1.478-.761.605-.761.605-2.082 0-1.075-.437-1.825t-1.354-.75q-.829 0-1.68.672v4.522q.627.224 1.388.224zM168.354 8.015q2.306 0 3.739 1.232 1.432 1.23 1.432 3.425V19.5h-3.447v-1.187q-1.276 1.433-3.358 1.433-1.747 0-2.799-.94-1.052-.94-1.052-2.53 0-1.32.817-2.194.817-.873 2.004-1.209 1.186-.336 2.686-.336.873 0 1.5.09 0-.806-.548-1.198-.549-.391-1.377-.391-1.59 0-3.291 1.186l-1.5-2.395q.918-.829 2.317-1.321 1.4-.493 2.877-.493zm-.515 8.843q.784 0 1.355-.548.57-.549.66-1.489H168.6q-1.836 0-1.836 1.075 0 .425.28.694.28.268.795.268zM182.66 8.015q1.186 0 1.97.515l-.896 3.045q-.761-.336-1.5-.336-1.388 0-2.597.94V19.5h-4.03V8.306h3.874v1.187q1.477-1.478 3.179-1.478z" stroke-width=".02239"/></g><g fill="#50606B" stroke="#50606B"><path d="M8.216 30.385h3.918V46.37H8.53v-.806q-1.41 1.097-3.045 1.097-2.015 0-3.459-1.567T.582 40.93q0-2.731 1.6-4.388 1.601-1.657 3.952-1.657 1.097 0 2.082.426zm-3.56 10.522q0 1.075.437 1.825t1.4.75q.962 0 1.723-.694v-4.186q-.739-.538-1.522-.538-.873 0-1.455.761-.582.762-.582 2.082zM19.253 34.885q2.306 0 3.739 1.232 1.433 1.23 1.433 3.425v6.828h-3.448v-1.187q-1.276 1.433-3.358 1.433-1.746 0-2.798-.94-1.053-.94-1.053-2.53 0-1.32.817-2.194.818-.873 2.004-1.209 1.187-.336 2.687-.336.873 0 1.5.09 0-.806-.549-1.198-.548-.391-1.377-.391-1.59 0-3.29 1.186l-1.5-2.395q.917-.829 2.316-1.321 1.4-.493 2.877-.493zm-.515 8.843q.784 0 1.355-.548.57-.549.66-1.489H19.5q-1.836 0-1.836 1.075 0 .425.28.694.28.268.794.268zM30.604 46.616q-2.955 0-4.88-1.656l1.432-2.485q1.746 1.23 3.201 1.23.515 0 .806-.178.291-.18.291-.448 0-.112-.044-.213-.045-.1-.168-.19-.123-.09-.235-.157-.112-.067-.325-.156-.213-.09-.37-.146-.156-.056-.436-.145-.28-.09-.459-.157-1.5-.537-2.295-1.287-.794-.75-.794-2.004 0-1.724 1.332-2.731 1.332-1.008 3.503-1.008 2.665 0 4.545 1.366l-1.388 2.418q-1.634-.94-2.91-.94-.515 0-.795.167-.28.168-.28.415 0 .29.336.47.336.179 1.164.47 1.903.671 2.575 1.142 1.276.94 1.276 2.485 0 1.746-1.467 2.742-1.466.996-3.615.996zM48.156 43.594q1.567 0 3.246-1.007l1.432 2.53q-2.171 1.522-4.947 1.522-2.843 0-4.366-1.68Q42 43.282 42 40.908q0-2.507 1.623-4.264 1.623-1.758 4.287-1.758 2.15 0 3.56 1.064 1.41 1.063 1.41 2.854 0 1.478-.929 2.485t-3.01 1.007h-3.27q.56 1.299 2.486 1.299zm-.18-5.754q-.783 0-1.477.493-.694.492-.963 1.433h2.418q.694 0 1.03-.303.336-.302.336-.682 0-.403-.37-.672t-.974-.269zM58.722 46.616q-2.955 0-4.88-1.656l1.433-2.485q1.746 1.23 3.201 1.23.515 0 .806-.178.291-.18.291-.448 0-.112-.045-.213-.044-.1-.168-.19-.123-.09-.235-.157-.112-.067-.324-.156-.213-.09-.37-.146-.156-.056-.436-.145-.28-.09-.46-.157-1.5-.537-2.294-1.287-.795-.75-.795-2.004 0-1.724 1.332-2.731 1.333-1.008 3.504-1.008 2.664 0 4.545 1.366l-1.388 2.418q-1.635-.94-2.91-.94-.516 0-.795.167-.28.168-.28.415 0 .29.336.47.335.179 1.164.47 1.903.671 2.574 1.142 1.276.94 1.276 2.485 0 1.746-1.466 2.742t-3.616.996zM70.633 46.616q-2.329 0-3.974-1.466-1.646-1.466-1.646-4.287 0-2.776 1.668-4.377 1.668-1.6 4.332-1.6 1.545 0 2.855.682 1.31.683 2.026 2.093l-2.956 1.567q-.626-1.164-1.835-1.164-.896 0-1.511.66-.616.661-.616 2.094 0 1.343.582 1.959.582.615 1.433.615 1.298 0 2.171-1.5l2.888 1.523q-1.544 3.201-5.417 3.201zM84.558 35.176h3.895V46.37h-3.694v-.873q-1.746 1.12-3.694 1.12-1.657 0-2.686-.963-1.03-.963-1.03-2.866v-7.612h3.985v6.694q0 1.567 1.253 1.567 1.03 0 1.97-.671zM98.326 42.587l1.142 2.776q-1.635 1.253-3.94 1.253-1.903 0-3.034-1.12-1.13-1.118-1.13-3.178v-4.522H89.93v-2.62h1.432v-3.47h3.985v3.47h3.358v2.62h-3.358v4.007q0 1.343 1.344 1.343.873 0 1.634-.56zM105.221 34.885q2.306 0 3.739 1.232 1.433 1.23 1.433 3.425v6.828h-3.448v-1.187q-1.276 1.433-3.358 1.433-1.746 0-2.798-.94-1.053-.94-1.053-2.53 0-1.32.817-2.194.818-.873 2.004-1.209 1.187-.336 2.687-.336.873 0 1.5.09 0-.806-.549-1.198-.548-.391-1.377-.391-1.59 0-3.29 1.186l-1.5-2.395q.917-.829 2.316-1.321 1.4-.493 2.877-.493zm-.515 8.843q.784 0 1.355-.548.57-.549.66-1.489h-1.254q-1.835 0-1.835 1.075 0 .425.28.694.28.268.794.268zM116.572 46.616q-2.955 0-4.88-1.656l1.432-2.485q1.746 1.23 3.201 1.23.515 0 .806-.178.291-.18.291-.448 0-.112-.044-.213-.045-.1-.168-.19-.123-.09-.235-.157-.112-.067-.325-.156-.213-.09-.37-.146-.156-.056-.436-.145-.28-.09-.459-.157-1.5-.537-2.295-1.287-.794-.75-.794-2.004 0-1.724 1.332-2.731 1.332-1.008 3.503-1.008 2.664 0 4.545 1.366l-1.388 2.418q-1.634-.94-2.91-.94-.515 0-.795.167-.28.168-.28.415 0 .29.336.47.336.179 1.164.47 1.903.671 2.575 1.142 1.276.94 1.276 2.485 0 1.746-1.467 2.742-1.466.996-3.615.996z" stroke-width=".02239"/></g><g fill="#50606B" stroke="#50606B"><path d="M7.746 61.755q1.993 0 3.437 1.556 1.444 1.556 1.444 4.175 0 2.754-1.635 4.4-1.634 1.645-4.119 1.645-.918 0-1.769-.246v4.209H1.097V62.046h3.694v.672q1.366-.963 2.955-.963zm-1.254 8.597q.873 0 1.478-.761.604-.761.604-2.082 0-1.075-.436-1.825-.437-.75-1.355-.75-.828 0-1.679.672v4.522q.627.224 1.388.224zM23.037 58.15l-4.388 3.157-1.68-1.88 3.851-3.806zm-1.59 3.896h3.896V73.24h-3.694v-.873q-1.747 1.12-3.694 1.12-1.657 0-2.687-.963-1.03-.963-1.03-2.866v-7.612h3.985v6.694q0 1.567 1.254 1.567 1.03 0 1.97-.671zM34.566 61.89q2.015 0 3.347 1.444 1.332 1.444 1.332 3.772 0 2.955-1.701 4.69-1.702 1.735-4.813 1.735-1.321 0-2.81-.313-1.489-.314-2.407-.806V57.255h3.94v5.62q1.433-.985 3.112-.985zm-1.813 8.507q1.231 0 1.836-.817.604-.817.604-2.16 0-2.463-1.701-2.463-1.12 0-2.038.918v4.387q.65.135 1.299.135zM40.902 73.24V57.255h4.03V73.24zM50.73 60.334l-.302.307q-.302.308-1.332.308t-1.635-.615q-.604-.616-.604-1.668t.604-1.668q.605-.616 1.635-.616t1.634.616q.605.616.605 1.668t-.605 1.668zM47.103 73.24V62.046h3.985V73.24zM58.387 73.486q-2.329 0-3.974-1.466-1.646-1.466-1.646-4.287 0-2.776 1.668-4.377 1.668-1.6 4.332-1.6 1.545 0 2.855.682 1.31.683 2.026 2.093l-2.955 1.567q-.627-1.164-1.836-1.164-.896 0-1.511.66-.616.661-.616 2.094 0 1.343.582 1.959.582.615 1.433.615 1.298 0 2.171-1.5l2.888 1.523q-1.544 3.201-5.417 3.201zM69.916 61.755q2.306 0 3.739 1.232 1.433 1.23 1.433 3.425v6.828H71.64v-1.187q-1.276 1.433-3.358 1.433-1.746 0-2.799-.94-1.052-.94-1.052-2.53 0-1.32.817-2.194.818-.873 2.004-1.209 1.187-.336 2.687-.336.873 0 1.5.09 0-.806-.549-1.198-.548-.391-1.377-.391-1.59 0-3.29 1.186l-1.5-2.395q.917-.829 2.316-1.321 1.4-.493 2.877-.493zm-.515 8.843q.784 0 1.355-.548.57-.549.66-1.489h-1.254q-1.835 0-1.835 1.075 0 .425.28.694.28.268.794.268zM81.267 73.486q-2.956 0-4.88-1.656l1.432-2.485q1.746 1.23 3.201 1.23.515 0 .806-.178.291-.18.291-.448 0-.112-.044-.213-.045-.1-.168-.19-.123-.09-.235-.157-.112-.067-.325-.156-.213-.09-.37-.146-.156-.056-.436-.145-.28-.09-.459-.157-1.5-.537-2.295-1.287-.794-.75-.794-2.004 0-1.724 1.332-2.731 1.332-1.008 3.503-1.008 2.664 0 4.545 1.366l-1.388 2.418q-1.634-.94-2.91-.94-.515 0-.795.167-.28.168-.28.415 0 .29.336.47.336.179 1.164.47 1.903.671 2.574 1.142 1.277.94 1.277 2.485 0 1.746-1.467 2.742-1.466.996-3.615.996zM98.818 70.464q1.568 0 3.247-1.007l1.432 2.53q-2.171 1.522-4.947 1.522-2.843 0-4.366-1.68-1.522-1.678-1.522-4.052 0-2.507 1.623-4.264 1.623-1.758 4.287-1.758 2.15 0 3.56 1.064 1.41 1.063 1.41 2.854 0 1.478-.929 2.485t-3.011 1.007h-3.269q.56 1.299 2.485 1.299zm-.179-5.754q-.783 0-1.477.493-.694.492-.963 1.433h2.418q.694 0 1.03-.303.336-.302.336-.682 0-.403-.37-.672t-.974-.269z" stroke-width=".02239"/></g><g fill="#50606B" stroke="#50606B"><path d="M6.201 100.356q-2.328 0-3.973-1.466Q.582 97.424.582 94.603q0-2.776 1.668-4.377 1.668-1.6 4.332-1.6 1.545 0 2.854.682 1.31.683 2.026 2.093l-2.955 1.567q-.627-1.164-1.836-1.164-.895 0-1.51.66-.616.661-.616 2.094 0 1.343.582 1.959.582.615 1.433.615 1.298 0 2.171-1.5l2.888 1.523q-1.545 3.201-5.418 3.201zM18.022 100.401q-2.709 0-4.287-1.612-1.579-1.612-1.556-4.276.022-2.709 1.578-4.298 1.556-1.59 4.265-1.59 2.798 0 4.332 1.567 1.533 1.567 1.533 4.321 0 2.687-1.567 4.287-1.567 1.601-4.298 1.601zm-2.015-5.888v1.366q0 1.365 2.015 1.365t2.015-2.73q0-2.732-2.015-2.732t-2.015 2.731zM33.044 88.625q1.769 0 2.798.974 1.03.974 1.03 2.854v7.657H32.82v-6.739q0-1.567-1.231-1.567-.94 0-1.948.784v7.522h-4.074V88.916h3.693v.94q1.836-1.23 3.784-1.23zM46.566 96.327l1.142 2.776q-1.635 1.253-3.94 1.253-1.903 0-3.034-1.12-1.13-1.118-1.13-3.178v-4.522H38.17v-2.62h1.432v-3.47h3.985v3.47h3.359v2.62h-3.359v4.007q0 1.343 1.344 1.343.873 0 1.634-.56zM55.79 88.625q1.186 0 1.97.515l-.896 3.045q-.76-.336-1.5-.336-1.388 0-2.597.94v7.321h-4.03V88.916h3.874v1.187q1.477-1.478 3.179-1.478zM62.304 87.204l-.302.307q-.302.308-1.332.308t-1.634-.615q-.605-.616-.605-1.668t.605-1.668q.604-.616 1.634-.616 1.03 0 1.634.616.605.616.605 1.668t-.605 1.668zm-3.626 12.906V88.916h3.985v11.194zM71.886 88.76q2.015 0 3.347 1.444 1.332 1.444 1.332 3.772 0 2.955-1.701 4.69-1.702 1.735-4.814 1.735-1.32 0-2.81-.313-1.488-.314-2.406-.806V84.125h3.94v5.62q1.433-.985 3.112-.985zm-1.813 8.507q1.231 0 1.836-.817.604-.817.604-2.16 0-2.463-1.701-2.463-1.12 0-2.038.918v4.387q.65.135 1.299.135zM85.386 88.916h3.895v11.194h-3.694v-.873q-1.746 1.12-3.694 1.12-1.656 0-2.686-.963t-1.03-2.866v-7.612h3.985v6.694q0 1.567 1.254 1.567 1.03 0 1.97-.671zM95.08 87.204l-.303.307q-.302.308-1.332.308t-1.634-.615q-.604-.616-.604-1.668t.604-1.668q.605-.616 1.634-.616 1.03 0 1.635.616.604.616.604 1.668t-.604 1.668zm-3.627 12.906V88.916h3.985v11.194zM104.684 88.625q1.186 0 1.97.515l-.895 3.045q-.762-.336-1.5-.336-1.388 0-2.597.94v7.321h-4.03V88.916h3.873v1.187q1.477-1.478 3.179-1.478zM117.288 100.356q-2.328 0-3.974-1.466-1.645-1.466-1.645-4.287 0-2.776 1.668-4.377 1.668-1.6 4.332-1.6 1.544 0 2.854.682 1.31.683 2.026 2.093l-2.955 1.567q-.627-1.164-1.836-1.164-.895 0-1.51.66-.617.661-.617 2.094 0 1.343.582 1.959.583.615 1.433.615 1.299 0 2.172-1.5l2.888 1.523q-1.545 3.201-5.418 3.201zM129.109 100.401q-2.71 0-4.288-1.612-1.578-1.612-1.555-4.276.022-2.709 1.578-4.298 1.556-1.59 4.265-1.59 2.798 0 4.332 1.567 1.533 1.567 1.533 4.321 0 2.687-1.567 4.287-1.567 1.601-4.298 1.601zm-2.015-5.888v1.366q0 1.365 2.015 1.365t2.015-2.73q0-2.732-2.015-2.732t-2.015 2.731zM151.384 88.625q1.702 0 2.765.985 1.064.985 1.064 2.843v7.657h-4.075v-6.806q0-.739-.257-1.12-.258-.38-.952-.38-.985 0-1.97.761v7.545h-4.075v-6.806q0-.739-.257-1.12-.257-.38-.951-.38-.986 0-1.97.761v7.545h-4.053V88.916h3.694v1.142q1.993-1.433 4.03-1.433 2.082 0 2.978 1.433 1.992-1.433 4.03-1.433z" stroke-width=".02239"/></g><g fill="#50606B" stroke="#50606B"><path d="M6.022 115.495q2.306 0 3.739 1.232 1.433 1.23 1.433 3.425v6.828H7.746v-1.187q-1.276 1.433-3.358 1.433-1.746 0-2.798-.94-1.053-.94-1.053-2.53 0-1.32.817-2.194.818-.873 2.004-1.209 1.187-.336 2.687-.336.873 0 1.5.09 0-.806-.549-1.198-.548-.391-1.377-.391-1.59 0-3.29 1.186l-1.5-2.395q.917-.829 2.316-1.321 1.4-.493 2.877-.493zm-.515 8.843q.784 0 1.355-.548.57-.549.66-1.489H6.268q-1.835 0-1.835 1.075 0 .425.28.694.28.268.794.268zM17.373 127.226q-2.955 0-4.88-1.656l1.432-2.485q1.746 1.23 3.201 1.23.515 0 .806-.178.291-.18.291-.448 0-.112-.044-.213-.045-.1-.168-.19-.123-.09-.235-.157-.112-.067-.325-.156-.213-.09-.37-.146-.156-.056-.436-.145-.28-.09-.459-.157-1.5-.537-2.295-1.287-.794-.75-.794-2.004 0-1.724 1.332-2.731 1.332-1.008 3.503-1.008 2.664 0 4.545 1.366l-1.388 2.418q-1.634-.94-2.91-.94-.515 0-.795.167-.28.168-.28.415 0 .29.336.47.336.179 1.164.47 1.903.671 2.575 1.142 1.276.94 1.276 2.485 0 1.746-1.467 2.742-1.466.996-3.615.996zM44.036 115.495q1.702 0 2.765.985 1.063.985 1.063 2.843v7.657H43.79v-6.806q0-.739-.258-1.12-.257-.38-.951-.38-.985 0-1.97.761v7.545h-4.075v-6.806q0-.739-.257-1.12-.258-.38-.952-.38-.985 0-1.97.761v7.545h-4.052v-11.194H33v1.142q1.993-1.433 4.03-1.433 2.082 0 2.977 1.433 1.993-1.433 4.03-1.433zM55.588 124.204q1.567 0 3.246-1.007l1.433 2.53q-2.171 1.522-4.947 1.522-2.844 0-4.366-1.68-1.522-1.678-1.522-4.052 0-2.507 1.623-4.264 1.623-1.758 4.287-1.758 2.15 0 3.56 1.064 1.41 1.063 1.41 2.854 0 1.478-.93 2.485-.928 1.007-3.01 1.007h-3.269q.56 1.299 2.485 1.299zm-.179-5.754q-.784 0-1.478.493-.694.492-.962 1.433h2.418q.694 0 1.03-.303.335-.302.335-.682 0-.403-.37-.672-.368-.269-.973-.269zM69.02 110.995h3.918v15.985h-3.604v-.806q-1.41 1.097-3.045 1.097-2.014 0-3.458-1.567-1.444-1.567-1.444-4.164 0-2.731 1.6-4.388t3.952-1.657q1.097 0 2.082.426zm-3.559 10.522q0 1.075.437 1.825.436.75 1.399.75.962 0 1.724-.694v-4.186q-.74-.538-1.523-.538-.873 0-1.455.761-.582.762-.582 2.082zM78.737 114.074l-.302.307q-.303.308-1.332.308-1.03 0-1.635-.615-.604-.616-.604-1.668t.604-1.668q.605-.616 1.635-.616t1.634.616q.604.616.604 1.668t-.604 1.668zM75.11 126.98v-11.194h3.985v11.194zM88.408 110.995h3.918v15.985h-3.604v-.806q-1.41 1.097-3.045 1.097-2.015 0-3.459-1.567t-1.444-4.164q0-2.731 1.6-4.388 1.601-1.657 3.952-1.657 1.097 0 2.082.426zm-3.56 10.522q0 1.075.437 1.825t1.4.75q.962 0 1.723-.694v-4.186q-.739-.538-1.522-.538-.873 0-1.455.761-.582.762-.582 2.082zM99.445 115.495q2.306 0 3.739 1.232 1.433 1.23 1.433 3.425v6.828h-3.448v-1.187q-1.276 1.433-3.358 1.433-1.746 0-2.798-.94-1.053-.94-1.053-2.53 0-1.32.817-2.194.818-.873 2.004-1.209 1.187-.336 2.687-.336.873 0 1.5.09 0-.806-.549-1.198-.548-.391-1.377-.391-1.59 0-3.29 1.186l-1.5-2.395q.917-.829 2.316-1.321 1.4-.493 2.877-.493zm-.515 8.843q.784 0 1.355-.548.57-.549.66-1.489h-1.253q-1.836 0-1.836 1.075 0 .425.28.694.28.268.794.268zM110.796 127.226q-2.955 0-4.88-1.656l1.432-2.485q1.746 1.23 3.201 1.23.515 0 .806-.178.291-.18.291-.448 0-.112-.044-.213-.045-.1-.168-.19-.123-.09-.235-.157-.112-.067-.325-.156-.213-.09-.37-.146-.156-.056-.436-.145-.28-.09-.459-.157-1.5-.537-2.295-1.287-.794-.75-.794-2.004 0-1.724 1.332-2.731 1.332-1.008 3.503-1.008 2.665 0 4.545 1.366l-1.388 2.418q-1.634-.94-2.91-.94-.515 0-.795.167-.28.168-.28.415 0 .29.336.47.336.179 1.164.47 1.903.671 2.575 1.142 1.276.94 1.276 2.485 0 1.746-1.467 2.742-1.466.996-3.615.996z" stroke-width=".02239"/></g><g fill="#50606B" stroke="#50606B"><path d="M5.194 154.096q-2.955 0-4.88-1.656l1.432-2.485q1.746 1.23 3.202 1.23.515 0 .806-.178.29-.18.29-.448 0-.112-.044-.213-.045-.1-.168-.19-.123-.09-.235-.157-.112-.067-.325-.156-.212-.09-.37-.146-.156-.056-.436-.145-.28-.09-.459-.157-1.5-.537-2.294-1.287-.795-.75-.795-2.004 0-1.724 1.332-2.731 1.332-1.008 3.504-1.008 2.664 0 4.544 1.366l-1.388 2.418q-1.634-.94-2.91-.94-.515 0-.795.167-.28.168-.28.415 0 .29.336.47.336.179 1.164.47 1.903.671 2.575 1.142 1.276.94 1.276 2.485 0 1.746-1.467 2.742-1.466.996-3.615.996zM17.328 154.141q-2.709 0-4.287-1.612-1.579-1.612-1.556-4.276.022-2.709 1.578-4.298 1.556-1.59 4.265-1.59 2.798 0 4.332 1.567 1.533 1.567 1.533 4.321 0 2.687-1.567 4.287-1.567 1.601-4.298 1.601zm-2.015-5.888v1.366q0 1.365 2.015 1.365t2.015-2.73q0-2.732-2.015-2.732t-2.015 2.731zM29.977 154.096q-2.328 0-3.974-1.466-1.645-1.466-1.645-4.287 0-2.776 1.667-4.377 1.668-1.6 4.332-1.6 1.545 0 2.855.682 1.31.683 2.026 2.093l-2.955 1.567q-.627-1.164-1.836-1.164-.896 0-1.511.66-.616.661-.616 2.094 0 1.343.582 1.959.582.615 1.433.615 1.299 0 2.172-1.5l2.888 1.523q-1.545 3.201-5.418 3.201zM40.365 140.944l-.303.307q-.302.308-1.332.308t-1.634-.615q-.604-.616-.604-1.668t.604-1.668q.605-.616 1.634-.616 1.03 0 1.635.616.604.616.604 1.668t-.604 1.668zm-3.627 12.906v-11.194h3.985v11.194zM48.245 154.141q-2.709 0-4.287-1.612-1.578-1.612-1.556-4.276.022-2.709 1.578-4.298 1.556-1.59 4.265-1.59 2.798 0 4.332 1.567 1.534 1.567 1.534 4.321 0 2.687-1.568 4.287-1.567 1.601-4.298 1.601zm-2.015-5.888v1.366q0 1.365 2.015 1.365t2.015-2.73q0-2.732-2.015-2.732t-2.015 2.731zM62.931 142.656h3.896v11.194h-3.694v-.873q-1.746 1.12-3.694 1.12-1.657 0-2.687-.963-1.03-.963-1.03-2.866v-7.612h3.985v6.694q0 1.567 1.254 1.567 1.03 0 1.97-.671zM76.073 142.365q1.186 0 1.97.515l-.896 3.045q-.76-.336-1.5-.336-1.388 0-2.597.94v7.321h-4.03v-11.194h3.874v1.187q1.477-1.478 3.179-1.478zM86.013 142.5q2.015 0 3.347 1.444 1.332 1.444 1.332 3.772 0 2.955-1.702 4.69-1.701 1.735-4.813 1.735-1.32 0-2.81-.313-1.488-.314-2.406-.806v-15.157h3.94v5.62q1.433-.985 3.112-.985zm-1.814 8.507q1.232 0 1.836-.817.605-.817.605-2.16 0-2.463-1.702-2.463-1.12 0-2.037.918v4.387q.65.135 1.298.135zM97.296 142.365q2.306 0 3.739 1.232 1.433 1.23 1.433 3.425v6.828H99.02v-1.187q-1.276 1.433-3.358 1.433-1.746 0-2.799-.94-1.052-.94-1.052-2.53 0-1.32.817-2.194.817-.873 2.004-1.209 1.186-.336 2.686-.336.874 0 1.5.09 0-.806-.548-1.198-.549-.391-1.377-.391-1.59 0-3.29 1.186l-1.5-2.395q.917-.829 2.316-1.321 1.4-.493 2.877-.493zm-.515 8.843q.784 0 1.355-.548.57-.549.66-1.489h-1.254q-1.835 0-1.835 1.075 0 .425.28.694.28.268.794.268zM112.027 142.365q1.769 0 2.798.974 1.03.974 1.03 2.854v7.657h-4.052v-6.739q0-1.567-1.231-1.567-.94 0-1.948.784v7.522h-4.074v-11.194h3.694v.94q1.835-1.23 3.783-1.23zM117.131 140.037l3.851-3.806 2.216 2.53-4.388 3.156zm.806 13.813v-11.194h3.784v11.194zM128.012 154.096q-2.955 0-4.88-1.656l1.432-2.485q1.746 1.23 3.201 1.23.515 0 .806-.178.291-.18.291-.448 0-.112-.044-.213-.045-.1-.168-.19-.123-.09-.235-.157-.112-.067-.325-.156-.213-.09-.37-.146-.156-.056-.436-.145-.28-.09-.459-.157-1.5-.537-2.295-1.287-.794-.75-.794-2.004 0-1.724 1.332-2.731 1.332-1.008 3.503-1.008 2.665 0 4.545 1.366l-1.388 2.418q-1.634-.94-2.91-.94-.515 0-.795.167-.28.168-.28.415 0 .29.336.47.336.179 1.164.47 1.903.671 2.575 1.142 1.276.94 1.276 2.485 0 1.746-1.467 2.742-1.466.996-3.615.996zM142.496 150.067l1.142 2.776q-1.634 1.253-3.94 1.253-1.903 0-3.034-1.12-1.13-1.118-1.13-3.178v-4.522H134.1v-2.62h1.433v-3.47h3.985v3.47h3.358v2.62h-3.358v4.007q0 1.343 1.343 1.343.873 0 1.634-.56zM148.272 140.944l-.302.307q-.302.308-1.332.308t-1.634-.615q-.605-.616-.605-1.668t.605-1.668q.604-.616 1.634-.616 1.03 0 1.634.616.605.616.605 1.668t-.605 1.668zm-3.626 12.906v-11.194h3.985v11.194zM155.929 154.096q-2.328 0-3.974-1.466-1.645-1.466-1.645-4.287 0-2.776 1.668-4.377 1.667-1.6 4.332-1.6 1.544 0 2.854.682 1.31.683 2.026 2.093l-2.955 1.567q-.627-1.164-1.836-1.164-.895 0-1.511.66-.616.661-.616 2.094 0 1.343.582 1.959.582.615 1.433.615 1.299 0 2.172-1.5l2.888 1.523q-1.545 3.201-5.418 3.201zM167.458 142.365q2.306 0 3.74 1.232 1.432 1.23 1.432 3.425v6.828h-3.448v-1.187q-1.276 1.433-3.358 1.433-1.746 0-2.798-.94t-1.052-2.53q0-1.32.817-2.194.817-.873 2.003-1.209 1.187-.336 2.687-.336.873 0 1.5.09 0-.806-.549-1.198-.548-.391-1.377-.391-1.589 0-3.29 1.186l-1.5-2.395q.917-.829 2.317-1.321 1.399-.493 2.876-.493zm-.514 8.843q.783 0 1.354-.548.57-.549.66-1.489h-1.253q-1.836 0-1.836 1.075 0 .425.28.694.28.268.795.268zM178.809 154.096q-2.955 0-4.88-1.656l1.432-2.485q1.746 1.23 3.202 1.23.515 0 .806-.178.29-.18.29-.448 0-.112-.044-.213-.045-.1-.168-.19-.123-.09-.235-.157-.112-.067-.325-.156-.212-.09-.37-.146-.156-.056-.436-.145-.28-.09-.459-.157-1.5-.537-2.294-1.287-.795-.75-.795-2.004 0-1.724 1.332-2.731 1.332-1.008 3.504-1.008 2.664 0 4.544 1.366l-1.388 2.418q-1.634-.94-2.91-.94-.515 0-.795.167-.28.168-.28.415 0 .29.336.47.336.179 1.164.47 1.903.671 2.575 1.142 1.276.94 1.276 2.485 0 1.746-1.466 2.742-1.467.996-3.616.996z" stroke-width=".02239"/></g><g fill="#50606B" stroke="#50606B"><path d="M7.746 169.235q1.993 0 3.437 1.556 1.444 1.556 1.444 4.175 0 2.754-1.635 4.4-1.634 1.645-4.119 1.645-.918 0-1.769-.246v4.209H1.097v-15.448h3.694v.672q1.366-.963 2.955-.963zm-1.254 8.597q.873 0 1.478-.761.604-.761.604-2.082 0-1.075-.436-1.825-.437-.75-1.355-.75-.828 0-1.679.672v4.522q.627.224 1.388.224zM19.23 169.235q2.307 0 3.74 1.232 1.432 1.23 1.432 3.425v6.828h-3.447v-1.187q-1.276 1.433-3.358 1.433-1.747 0-2.799-.94-1.052-.94-1.052-2.53 0-1.32.817-2.194.817-.873 2.004-1.209 1.186-.336 2.686-.336.873 0 1.5.09 0-.806-.548-1.198-.549-.391-1.377-.391-1.59 0-3.291 1.186l-1.5-2.395q.918-.829 2.317-1.321 1.4-.493 2.877-.493zm-.514 8.843q.784 0 1.354-.548.571-.549.66-1.489h-1.253q-1.836 0-1.836 1.075 0 .425.28.694.28.268.795.268zM33.536 169.235q1.187 0 1.97.515l-.895 3.045q-.761-.336-1.5-.336-1.388 0-2.597.94v7.321h-4.03v-11.194h3.873v1.187q1.478-1.478 3.18-1.478zM40.924 169.235q2.306 0 3.74 1.232 1.432 1.23 1.432 3.425v6.828h-3.448v-1.187q-1.276 1.433-3.358 1.433-1.746 0-2.798-.94-1.053-.94-1.053-2.53 0-1.32.818-2.194.817-.873 2.003-1.209 1.187-.336 2.687-.336.873 0 1.5.09 0-.806-.549-1.198-.548-.391-1.377-.391-1.59 0-3.29 1.186l-1.5-2.395q.917-.829 2.317-1.321 1.399-.493 2.876-.493zm-.515 8.843q.784 0 1.355-.548.57-.549.66-1.489h-1.253q-1.836 0-1.836 1.075 0 .425.28.694.28.268.794.268zM68.998 164.668q.94 0 1.556.37.616.369.616 1.108v14.574h-4.052v-8.53l-2.776 5.418h-3.806l-2.776-5.418v8.53h-4.052v-14.552q0-.739.615-1.12.616-.38 1.556-.38 1.142 0 1.623.347.482.347 1.064 1.467l3.873 7.5 3.873-7.5q.582-1.12 1.063-1.467.482-.347 1.623-.347zM78.468 169.235q2.306 0 3.739 1.232 1.433 1.23 1.433 3.425v6.828h-3.448v-1.187q-1.276 1.433-3.358 1.433-1.746 0-2.799-.94-1.052-.94-1.052-2.53 0-1.32.817-2.194.818-.873 2.004-1.209 1.187-.336 2.687-.336.873 0 1.5.09 0-.806-.549-1.198-.548-.391-1.377-.391-1.59 0-3.29 1.186l-1.5-2.395q.917-.829 2.316-1.321 1.4-.493 2.877-.493zm-.515 8.843q.784 0 1.355-.548.57-.549.66-1.489h-1.254q-1.835 0-1.835 1.075 0 .425.28.694.28.268.794.268zM90.826 180.966q-2.328 0-3.974-1.466-1.645-1.466-1.645-4.287 0-2.776 1.668-4.377 1.668-1.6 4.332-1.6 1.544 0 2.854.682 1.31.683 2.026 2.093l-2.955 1.567q-.627-1.164-1.836-1.164-.895 0-1.51.66-.617.661-.617 2.094 0 1.343.582 1.959.583.615 1.433.615 1.299 0 2.172-1.5l2.888 1.523q-1.545 3.201-5.418 3.201zM102.938 177.944q1.567 0 3.246-1.007l1.433 2.53q-2.172 1.522-4.948 1.522-2.843 0-4.366-1.68-1.522-1.678-1.522-4.052 0-2.507 1.623-4.264 1.623-1.758 4.287-1.758 2.15 0 3.56 1.064 1.41 1.063 1.41 2.854 0 1.478-.929 2.485t-3.01 1.007h-3.27q.56 1.299 2.486 1.299zm-.18-5.754q-.783 0-1.477.493-.694.492-.963 1.433h2.418q.694 0 1.03-.303.336-.302.336-.682 0-.403-.37-.672-.369-.269-.973-.269zM113.012 167.814l-.302.307q-.302.308-1.332.308t-1.634-.615q-.605-.616-.605-1.668t.605-1.668q.604-.616 1.634-.616 1.03 0 1.634.616.605.616.605 1.668t-.605 1.668zm-3.627 12.906v-11.194h3.985v11.194zM118.184 166.907l3.85-3.806 2.217 2.53-4.388 3.156zm2.708 14.104q-2.708 0-4.287-1.612-1.578-1.612-1.556-4.276.023-2.709 1.579-4.298 1.556-1.59 4.264-1.59 2.799 0 4.332 1.567 1.534 1.567 1.534 4.321 0 2.687-1.567 4.287-1.567 1.601-4.299 1.601zm-2.014-5.888v1.366q0 1.365 2.014 1.365 2.015 0 2.015-2.73 0-2.732-2.015-2.732-2.014 0-2.014 2.731z" stroke-width=".02239"/></g></svg>