<svg width="93" height="26" viewBox="0 0 93 26" xmlns="http://www.w3.org/2000/svg"><g fill="#50606B" stroke="#50606B"><path d="M10.25 20.245q-4.245 0-6.833-2.576Q.828 15.094.828 10.85q0-4.374 2.602-7.04 2.6-2.666 6.898-2.666 4.296 0 6.885 2.64Q19.8 6.423 19.8 10.77q0 4.297-2.614 6.885-2.615 2.589-6.937 2.589zm.078-4.142q2.226 0 3.416-1.384 1.19-1.385 1.19-4 0-2.64-1.19-4.037-1.19-1.398-3.416-1.398-2.252 0-3.443 1.398-1.19 1.397-1.19 4.038 0 2.614 1.19 3.999 1.19 1.384 3.443 1.384zM30.387 6.682q2.045 0 3.236 1.126 1.19 1.126 1.19 3.3v8.852h-4.685v-7.79q0-1.813-1.423-1.813-1.087 0-2.252.906v8.697h-4.71V7.018h4.27v1.087q2.122-1.423 4.374-1.423zM37.22 19.96V1.48h4.66v18.48zM48.583 5.038l-.35.356q-.349.356-1.54.356-1.19 0-1.889-.712-.699-.712-.699-1.928 0-1.217.7-1.928.698-.712 1.889-.712 1.19 0 1.89.712.698.711.698 1.928 0 1.216-.699 1.928zM44.39 19.96V7.018h4.607V19.96zM60.18 6.682q2.044 0 3.235 1.126 1.19 1.126 1.19 3.3v8.852H59.92v-7.79q0-1.813-1.423-1.813-1.087 0-2.252.906v8.697h-4.71V7.018h4.27v1.087q2.122-1.423 4.374-1.423zM73.535 16.75q1.812 0 3.753-1.164l1.657 2.925q-2.511 1.76-5.72 1.76-3.288 0-5.048-1.942-1.76-1.94-1.76-4.685 0-2.899 1.877-4.93 1.876-2.032 4.956-2.032 2.485 0 4.116 1.23 1.63 1.229 1.63 3.3 0 1.708-1.074 2.872-1.074 1.165-3.481 1.165h-3.779q.647 1.501 2.873 1.501zm-.207-6.652q-.906 0-1.708.57-.803.57-1.113 1.656h2.795q.802 0 1.19-.35.389-.348.389-.789 0-.465-.427-.776-.427-.31-1.126-.31z" stroke-width=".02588"/></g></svg>