<svg width="219" height="96" viewBox="0 0 219 96" xmlns="http://www.w3.org/2000/svg"><g fill="#50606B" stroke="#50606B"><path d="M7.649 17.7q-2.984 0-4.916-1.922Q.801 13.856.801 10.412q0-3.424 1.982-5.456Q4.765 2.923 7.89 2.923q1.862 0 3.334.811 1.471.811 2.312 2.253l-2.122 1.422q-1.221-2.003-3.444-2.003-1.942 0-3.093 1.292-1.152 1.291-1.152 3.614 0 2.302 1.162 3.564 1.16 1.261 2.963 1.261 2.323 0 4.065-2.022l1.782 1.742Q11.273 17.7 7.649 17.7zM19.342 7.208q2.022 0 3.224 1.092 1.201 1.09 1.201 3.073v6.107h-2.403v-1.301q-1.14 1.541-3.243 1.541-1.542 0-2.493-.85-.951-.852-.951-2.253 0-1.722 1.381-2.513 1.382-.791 3.504-.791.901 0 1.702.12v-.14q0-.941-.58-1.432-.581-.49-1.542-.49-1.562 0-3.044 1.141l-1.16-1.702q1.701-1.602 4.404-1.602zm-.56 8.49q1.08 0 1.741-.74.661-.742.741-1.923-.78-.06-1.501-.06-2.383 0-2.383 1.462 0 .56.38.91.38.351 1.021.351zM32.677 3.184h2.703V17.48h-2.543v-.881q-1.301 1.141-2.983 1.141-1.822 0-3.063-1.401-1.242-1.402-1.242-3.705 0-2.462 1.372-3.944 1.371-1.482 3.454-1.482 1.281 0 2.302.621zm-2.182 12.314q1.221 0 2.182-.981v-4.285q-.9-.781-1.982-.781-1.061 0-1.712.81-.65.812-.65 2.333 0 1.302.56 2.103.56.8 1.602.8zM41.868 7.208q2.022 0 3.223 1.092 1.202 1.09 1.202 3.073v6.107H43.89v-1.301q-1.141 1.541-3.244 1.541-1.541 0-2.492-.85-.952-.852-.952-2.253 0-1.722 1.382-2.513 1.382-.791 3.504-.791.901 0 1.702.12v-.14q0-.941-.58-1.432-.581-.49-1.542-.49-1.562 0-3.044 1.141L37.463 8.81q1.702-1.602 4.405-1.602zm-.56 8.49q1.08 0 1.741-.74.66-.742.741-1.923-.78-.06-1.502-.06-2.382 0-2.382 1.462 0 .56.38.91.38.351 1.021.351zM51.98 17.7q-2.604 0-4.185-1.521l1.08-1.722q1.462 1.18 2.984 1.18.661 0 1.111-.26.451-.26.451-.72 0-.16-.06-.3-.06-.14-.19-.26-.13-.121-.25-.201-.12-.08-.361-.18-.24-.1-.39-.15-.15-.05-.461-.15-.31-.1-.45-.14-1.402-.481-2.153-1.122-.75-.64-.75-1.802 0-1.482 1.13-2.313 1.132-.83 2.914-.83 2.162 0 3.764 1.16l-1.041 1.703Q53.74 9.23 52.52 9.23q-.66 0-1.061.25-.4.25-.4.65 0 .321.3.571.3.25.55.34.25.09.911.311.681.22 1.011.34.33.12.891.41.561.291.831.582.27.29.491.76.22.47.22 1.052 0 1.501-1.241 2.352-1.242.851-3.044.851zM64.454 14.737l.86 1.942Q63.974 17.7 62.172 17.7q-1.622 0-2.523-.96-.9-.962-.9-2.704V9.351h-1.503V7.469h1.502V4.365h2.723v3.104h3.244V9.35H61.47v4.445q0 .8.41 1.141.411.34.972.34.78 0 1.602-.54zM72.202 7.208q.901 0 1.522.36l-.56 2.163q-.701-.22-1.222-.22-1.442 0-2.643 1.121v6.848h-2.763V7.469h2.663v1.16q1.362-1.42 3.003-1.42zM79.25 15.538q1.582 0 3.024-1.061l1.101 1.762q-1.882 1.481-4.305 1.481-2.302 0-3.664-1.431-1.361-1.432-1.361-3.675 0-2.262 1.401-3.834 1.402-1.572 3.824-1.572 1.763 0 2.984.931t1.221 2.553q0 1.242-.77 2.053-.771.81-2.373.81h-3.725q.42 1.983 2.643 1.983zm0-6.267q-.98 0-1.742.64-.76.641-.96 1.802h3.203q.6 0 .931-.3.33-.3.33-.8 0-.561-.49-.952-.49-.39-1.272-.39zM85.277 10.252h7.489v2.282h-7.489zM98.492 17.7q-2.603 0-4.184-1.521l1.08-1.722q1.463 1.18 2.984 1.18.661 0 1.112-.26.45-.26.45-.72 0-.16-.06-.3-.06-.14-.19-.26-.13-.121-.25-.201-.12-.08-.36-.18-.241-.1-.391-.15-.15-.05-.46-.15-.311-.1-.451-.14-1.402-.481-2.153-1.122-.75-.64-.75-1.802 0-1.482 1.13-2.313 1.132-.83 2.914-.83 2.162 0 3.764 1.16l-1.041 1.703q-1.382-.841-2.603-.841-.66 0-1.061.25-.4.25-.4.65 0 .321.3.571.3.25.55.34.25.09.911.311.681.22 1.012.34.33.12.89.41.561.291.832.582.27.29.49.76.22.47.22 1.052 0 1.501-1.241 2.352t-3.044.851zM109.285 15.538q1.582 0 3.023-1.061l1.101 1.762q-1.882 1.481-4.304 1.481-2.303 0-3.665-1.431-1.361-1.432-1.361-3.675 0-2.262 1.401-3.834 1.402-1.572 3.825-1.572 1.762 0 2.983.931 1.222.931 1.222 2.553 0 1.242-.771 2.053-.771.81-2.373.81h-3.724q.42 1.983 2.643 1.983zm0-6.267q-.981 0-1.742.64-.761.641-.961 1.802h3.203q.601 0 .931-.3.33-.3.33-.8 0-.561-.49-.952-.49-.39-1.271-.39zM124.562 15.538q1.582 0 3.024-1.061l1.1 1.762q-1.881 1.481-4.304 1.481-2.303 0-3.664-1.431-1.362-1.432-1.362-3.675 0-2.262 1.402-3.834 1.401-1.572 3.824-1.572 1.762 0 2.984.931 1.221.931 1.221 2.553 0 1.242-.77 2.053-.772.81-2.374.81h-3.724q.42 1.983 2.643 1.983zm0-6.267q-.98 0-1.742.64-.76.641-.96 1.802h3.203q.6 0 .93-.3.331-.3.331-.8 0-.561-.49-.952-.49-.39-1.272-.39zM143.464 7.208q1.502 0 2.383.851.88.851.88 2.433v6.988h-2.783v-6.387q0-.821-.29-1.222-.29-.4-1.011-.4-1.322 0-2.543 1.081v6.928h-2.783v-6.387q0-.821-.3-1.222-.3-.4-1.022-.4-1.221 0-2.543 1.141v6.868h-2.783V7.469h2.583V8.73q1.822-1.522 3.684-1.522 2.023 0 2.784 1.462 1.782-1.462 3.744-1.462z" stroke-width=".02002"/></g><g fill="#EC6608" stroke="#EC6608"><path d="M12.614 31.499h2.523l-2.543 9.13q-.18.56-.58.78-.4.221-1.162.221-.78 0-1.191-.22-.41-.22-.57-.781l-1.402-5.686-1.462 5.686q-.18.58-.57.79-.391.211-1.192.211-.8 0-1.201-.22-.4-.22-.56-.781L.26 31.499h2.663l1.622 7.408 1.902-7.408H9.11l1.782 7.368zM27.972 31.499h2.523l-2.543 9.13q-.18.56-.58.78-.401.221-1.162.221-.781 0-1.191-.22-.41-.22-.571-.781l-1.402-5.686-1.461 5.686q-.18.58-.571.79-.39.211-1.191.211t-1.202-.22q-.4-.22-.56-.781l-2.443-9.13h2.663l1.622 7.408 1.902-7.408h2.663l1.782 7.368zM43.33 31.499h2.522l-2.543 9.13q-.18.56-.58.78-.4.221-1.162.221-.78 0-1.19-.22-.411-.22-.572-.781l-1.401-5.686-1.462 5.686q-.18.58-.57.79-.39.211-1.192.211-.8 0-1.201-.22-.4-.22-.56-.781l-2.444-9.13h2.663l1.622 7.408 1.902-7.408h2.663l1.783 7.368zM47.674 41.71q-.68 0-1.12-.44-.441-.44-.441-1.142 0-.7.43-1.13.43-.431 1.131-.431.701 0 1.132.43.43.43.43 1.131 0 .701-.43 1.142-.43.44-1.132.44zM64.033 31.238q1.502 0 2.383.851.88.851.88 2.433v6.988h-2.782v-6.387q0-.821-.29-1.222-.291-.4-1.012-.4-1.321 0-2.543 1.081v6.928h-2.783v-6.387q0-.821-.3-1.222-.3-.4-1.021-.4-1.222 0-2.543 1.141v6.868h-2.784V31.499h2.583v1.261q1.823-1.522 3.685-1.522 2.022 0 2.783 1.462 1.782-1.462 3.744-1.462zM73.724 31.238q2.022 0 3.224 1.092 1.201 1.09 1.201 3.073v6.107h-2.403v-1.301q-1.14 1.541-3.243 1.541-1.542 0-2.493-.85-.951-.852-.951-2.253 0-1.722 1.381-2.513 1.382-.791 3.504-.791.901 0 1.702.12v-.14q0-.941-.58-1.432-.581-.49-1.542-.49-1.562 0-3.044 1.141l-1.16-1.702q1.701-1.602 4.404-1.602zm-.56 8.49q1.08 0 1.742-.74.66-.742.74-1.923-.78-.06-1.501-.06-2.383 0-2.383 1.462 0 .56.38.91.38.351 1.022.351zM82.995 29.847l-.22.225q-.22.225-.962.225-.74 0-1.17-.44-.431-.44-.431-1.202 0-.76.43-1.201.43-.44 1.171-.44.741 0 1.182.45.44.45.44 1.191 0 .741-.44 1.192zM80.452 41.51V31.499h2.703V41.51zM88.962 41.73q-2.603 0-4.185-1.521l1.081-1.722q1.462 1.18 2.983 1.18.661 0 1.112-.26.45-.26.45-.72 0-.16-.06-.3-.06-.14-.19-.26-.13-.121-.25-.201-.12-.08-.36-.18-.241-.1-.391-.15-.15-.05-.46-.15-.311-.1-.451-.14-1.402-.481-2.153-1.122-.75-.64-.75-1.802 0-1.482 1.13-2.313 1.132-.83 2.914-.83 2.163 0 3.764 1.16l-1.04 1.703q-1.382-.841-2.604-.841-.66 0-1.061.25-.4.25-.4.65 0 .321.3.571.3.25.55.34.25.09.912.311.68.22 1.01.34.331.12.892.41.56.291.83.582.271.29.491.76.22.47.22 1.052 0 1.501-1.241 2.352t-3.043.851zM101.696 27.214h2.703V41.51h-2.543v-.881q-1.301 1.141-2.983 1.141-1.822 0-3.064-1.401-1.241-1.402-1.241-3.705 0-2.462 1.372-3.944 1.371-1.482 3.453-1.482 1.282 0 2.303.621zm-2.182 12.314q1.221 0 2.182-.981v-4.285q-.9-.781-1.982-.781-1.061 0-1.712.81-.65.812-.65 2.333 0 1.302.56 2.103.56.8 1.602.8zM109.345 29.847l-.22.225q-.22.225-.962.225-.74 0-1.17-.44-.431-.44-.431-1.202 0-.76.43-1.201.43-.44 1.171-.44.741 0 1.182.45.44.45.44 1.191 0 .741-.44 1.192zm-2.543 11.663V31.499h2.703V41.51zM116.012 31.238q2.023 0 3.224 1.092 1.201 1.09 1.201 3.073v6.107h-2.402v-1.301q-1.142 1.541-3.244 1.541-1.542 0-2.493-.85-.95-.852-.95-2.253 0-1.722 1.38-2.513 1.382-.791 3.505-.791.9 0 1.702.12v-.14q0-.941-.581-1.432-.58-.49-1.542-.49-1.562 0-3.043 1.141l-1.162-1.702q1.702-1.602 4.405-1.602zm-.56 8.49q1.081 0 1.742-.74.66-.742.74-1.923-.78-.06-1.501-.06-2.383 0-2.383 1.462 0 .56.38.91.381.351 1.022.351zM122.72 41.51V27.214h2.743V41.51zM132.391 41.77q-2.323 0-3.684-1.441-1.362-1.442-1.342-3.825.02-2.402 1.372-3.834t3.654-1.432q2.363 0 3.704 1.412 1.342 1.411 1.342 3.854 0 2.403-1.352 3.835-1.351 1.431-3.694 1.431zm0-2.242q2.383 0 2.383-3.024 0-3.023-2.383-3.023-1.141 0-1.752.76-.61.762-.61 2.263 0 3.024 2.362 3.024zM148.85 31.779q-.5.62-1.482 1.161.52.761.52 1.802 0 1.542-1.21 2.453-1.212.911-3.274.911-.781 0-1.522-.16-.38.2-.38.56 0 .381.4.571.4.19 1.301.29 2.824.32 3.625.661 1.722.701 1.722 2.463 0 1.642-1.382 2.473-1.382.83-3.864.83-2.203 0-3.514-.75-1.312-.75-1.312-2.132 0-1.542 1.642-2.203-.881-.62-.881-1.642 0-1.081 1.061-1.802-1.241-.86-1.241-2.483 0-1.602 1.211-2.553 1.212-.95 3.214-.95 1.321 0 2.322.42 1.022-.46 1.823-1.342zm-5.406 4.445q.94 0 1.481-.39.541-.39.541-1.112 0-.72-.53-1.121-.531-.4-1.472-.4t-1.472.41q-.53.41-.53 1.151 0 1.462 1.982 1.462zm2.543 6.427q0-.52-.52-.73-.522-.21-1.663-.33-1.261-.121-1.782-.201-1.041.5-1.041 1.221 0 1.262 2.443 1.262 2.563 0 2.563-1.222zM154.516 41.77q-2.322 0-3.684-1.441-1.361-1.442-1.341-3.825.02-2.402 1.371-3.834 1.352-1.432 3.654-1.432 2.363 0 3.705 1.412 1.341 1.411 1.341 3.854 0 2.403-1.351 3.835-1.352 1.431-3.695 1.431zm0-2.242q2.383 0 2.383-3.024 0-3.023-2.383-3.023-1.14 0-1.752.76-.61.762-.61 2.263 0 3.024 2.362 3.024zM164.768 41.73q-2.603 0-4.185-1.521l1.082-1.722q1.461 1.18 2.983 1.18.66 0 1.111-.26.45-.26.45-.72 0-.16-.06-.3-.06-.14-.19-.26-.13-.121-.25-.201-.12-.08-.36-.18-.24-.1-.39-.15-.15-.05-.461-.15-.31-.1-.45-.14-1.402-.481-2.153-1.122-.751-.64-.751-1.802 0-1.482 1.131-2.313 1.132-.83 2.914-.83 2.162 0 3.764 1.16l-1.041 1.703q-1.382-.841-2.603-.841-.661 0-1.061.25-.4.25-.4.65 0 .321.3.571.3.25.55.34.25.09.911.311.68.22 1.011.34.33.12.891.41.56.291.831.582.27.29.49.76.221.47.221 1.052 0 1.501-1.241 2.352-1.242.851-3.044.851zM172.056 41.71q-.68 0-1.12-.44-.441-.44-.441-1.142 0-.7.43-1.13.43-.431 1.131-.431.701 0 1.132.43.43.43.43 1.131 0 .701-.43 1.142-.43.44-1.132.44zM179.885 41.75q-2.102 0-3.514-1.381-1.411-1.382-1.411-3.825 0-2.422 1.411-3.864 1.412-1.442 3.735-1.442 1.401 0 2.522.59 1.122.592 1.722 1.793l-2.062 1.161q-.7-1.301-2.142-1.301-1.062 0-1.762.76-.701.762-.701 2.283 0 1.502.67 2.233.671.73 1.713.73 1.441 0 2.422-1.561l1.983 1.141q-.601 1.242-1.792 1.962-1.192.721-2.794.721zM190.237 41.77q-2.322 0-3.684-1.441-1.362-1.442-1.342-3.825.02-2.402 1.372-3.834t3.654-1.432q2.363 0 3.704 1.412 1.342 1.411 1.342 3.854 0 2.403-1.352 3.835-1.351 1.431-3.694 1.431zm0-2.242q2.383 0 2.383-3.024 0-3.023-2.383-3.023-1.141 0-1.752.76-.61.762-.61 2.263 0 3.024 2.362 3.024zM209.96 31.238q1.501 0 2.382.851.881.851.881 2.433v6.988h-2.783v-6.387q0-.821-.29-1.222-.29-.4-1.011-.4-1.322 0-2.543 1.081v6.928h-2.783v-6.387q0-.821-.3-1.222-.301-.4-1.022-.4-1.221 0-2.543 1.141v6.868h-2.783V31.499h2.583v1.261q1.822-1.522 3.684-1.522 2.023 0 2.783 1.462 1.782-1.462 3.745-1.462z" stroke-width=".02002"/></g><g fill="#50606B" stroke="#50606B"><path d="M5.707 65.8q-2.323 0-3.685-1.441Q.661 62.917.681 60.534.7 58.132 2.052 56.7q1.352-1.432 3.655-1.432 2.362 0 3.704 1.412 1.341 1.411 1.341 3.854 0 2.403-1.351 3.835Q8.049 65.8 5.707 65.8zm0-2.242q2.382 0 2.382-3.024 0-3.023-2.382-3.023-1.142 0-1.752.76-.611.762-.611 2.263 0 3.024 2.363 3.024zM19.262 55.529h2.683V65.54h-2.583v-1.101q-1.702 1.341-3.564 1.341-1.482 0-2.353-.84-.87-.842-.87-2.443v-6.968h2.722v6.347q0 1.642 1.362 1.642 1.221 0 2.603-1.162zM34.36 55.268q1.841 0 3.073 1.402 1.231 1.401 1.231 3.724 0 2.423-1.381 3.915Q35.9 65.8 33.739 65.8q-1.122 0-2.143-.46v3.964h-2.743V55.53h2.583v.8q1.321-1.06 2.923-1.06zm-.862 8.29q1.061 0 1.732-.831t.671-2.313q0-1.301-.54-2.102-.541-.801-1.582-.801-1.182 0-2.183.96v4.606q.941.48 1.902.48zM45.212 63.598q1.581 0 3.023-1.061l1.101 1.762q-1.882 1.481-4.305 1.481-2.302 0-3.664-1.431-1.361-1.432-1.361-3.675 0-2.262 1.401-3.834 1.402-1.572 3.825-1.572 1.762 0 2.983.931t1.221 2.553q0 1.242-.77 2.053-.771.81-2.373.81h-3.724q.42 1.983 2.643 1.983zm0-6.267q-.982 0-1.742.64-.761.641-.961 1.802h3.203q.6 0 .931-.3.33-.3.33-.8 0-.561-.49-.952-.49-.39-1.271-.39zM51.299 65.54V51.244h2.743V65.54zM60.97 65.8q-2.323 0-3.685-1.441-1.361-1.442-1.341-3.825.02-2.402 1.371-3.834 1.352-1.432 3.655-1.432 2.362 0 3.704 1.412 1.341 1.411 1.341 3.854 0 2.403-1.351 3.835Q63.312 65.8 60.97 65.8zm0-2.242q2.382 0 2.382-3.024 0-3.023-2.382-3.023-1.142 0-1.752.76-.611.762-.611 2.263 0 3.024 2.363 3.024zM78.75 62.797l.86 1.942q-1.34 1.021-3.143 1.021-1.622 0-2.523-.96-.9-.962-.9-2.704v-4.685h-1.502v-1.882h1.501v-3.104h2.723v3.104h3.244v1.882h-3.244v4.445q0 .8.411 1.141.41.34.971.34.781 0 1.602-.54zM85.418 63.598q1.581 0 3.023-1.061l1.101 1.762q-1.882 1.481-4.305 1.481-2.302 0-3.664-1.431-1.361-1.432-1.361-3.675 0-2.262 1.401-3.834 1.402-1.572 3.825-1.572 1.762 0 2.983.931t1.221 2.553q0 1.242-.77 2.053-.771.81-2.373.81h-3.724q.42 1.983 2.643 1.983zm0-6.267q-.982 0-1.742.64-.761.641-.962 1.802h3.204q.6 0 .931-.3.33-.3.33-.8 0-.561-.49-.952-.49-.39-1.271-.39zM91.504 65.54V51.244h2.744V65.54zM101.336 63.598q1.581 0 3.023-1.061l1.101 1.762q-1.882 1.481-4.305 1.481-2.302 0-3.664-1.431-1.361-1.432-1.361-3.675 0-2.262 1.401-3.834 1.402-1.572 3.825-1.572 1.762 0 2.983.931 1.222.931 1.222 2.553 0 1.242-.771 2.053-.771.81-2.373.81h-3.724q.42 1.983 2.643 1.983zm0-6.267q-.981 0-1.742.64-.761.641-.961 1.802h3.203q.6 0 .931-.3.33-.3.33-.8 0-.561-.49-.952-.49-.39-1.271-.39zM112.609 53.266q-.821 0-1.322.45-.5.451-.5 1.392v.42h3.403v1.883h-3.404v8.129h-2.683v-8.13h-1.441V55.53h1.441v-.481q0-.981.3-1.742.301-.76.742-1.191.44-.43 1.02-.701.581-.27 1.042-.35.46-.08.881-.08 1.742 0 3.083 1l-.92 1.803q-.882-.521-1.642-.521zM119.797 65.8q-2.323 0-3.684-1.441-1.362-1.442-1.342-3.825.02-2.402 1.372-3.834 1.351-1.432 3.654-1.432 2.362 0 3.704 1.412 1.342 1.411 1.342 3.854 0 2.403-1.352 3.835-1.352 1.431-3.694 1.431zm0-2.242q2.382 0 2.382-3.024 0-3.023-2.382-3.023-1.142 0-1.752.76-.61.762-.61 2.263 0 3.024 2.362 3.024zM132.912 55.268q1.541 0 2.412.851t.871 2.433v6.988h-2.763v-6.347q0-.861-.32-1.262-.32-.4-1.021-.4-1.202 0-2.563 1.041v6.968h-2.803V55.529h2.583v1.06q1.762-1.32 3.604-1.32zM143.183 63.598q1.582 0 3.024-1.061l1.101 1.762q-1.882 1.481-4.305 1.481-2.302 0-3.664-1.431-1.361-1.432-1.361-3.675 0-2.262 1.401-3.834 1.402-1.572 3.824-1.572 1.763 0 2.984.931t1.221 2.553q0 1.242-.77 2.053-.771.81-2.373.81h-3.725q.42 1.983 2.643 1.983zm0-6.267q-.98 0-1.742.64-.76.641-.96 1.802h3.203q.6 0 .931-.3.33-.3.33-.8 0-.561-.49-.952-.49-.39-1.272-.39z" stroke-width=".02002"/></g><g fill="#50606B" stroke="#50606B"><path d="M6.207 92.914q-2.363-.981-3.944-3.634Q.68 86.627.68 82.942q0-3.684 1.592-6.347 1.591-2.663 3.934-3.624l1.121 2.062q-1.922 1.142-2.963 3.184-1.041 2.042-1.041 4.725 0 2.704 1.031 4.736 1.031 2.032 2.973 3.133zM14.877 82.021q1.321.48 2.102 1.432.781.951.781 2.253 0 1.702-1.421 2.913-1.422 1.211-3.925 1.211T8.48 88.62q-1.432-1.211-1.432-2.913 0-1.302.78-2.253.782-.951 2.103-1.412-2.302-1.06-2.302-3.183 0-1.582 1.291-2.713 1.292-1.132 3.494-1.132 2.203 0 3.484 1.132 1.282 1.131 1.282 2.713 0 2.122-2.303 3.163zm-2.443-4.645q-.92 0-1.502.5-.58.501-.58 1.282t.58 1.282q.581.5 1.502.5.901 0 1.472-.5.57-.501.57-1.282 0-.78-.57-1.281-.57-.5-1.472-.5zm-1.802 9.5l.35.296q.35.296 1.432.296 1.081 0 1.782-.591.701-.59.701-1.492 0-.9-.7-1.481-.702-.581-1.783-.581t-1.782.58q-.7.581-.7 1.482t.7 1.492zM23.367 85.545q-.661.821-.801 1.562h6.187v2.463h-9.27q-.08-1.982.28-3.204.36-1.221 1.281-2.302.64-.781 2.253-2.043 1.611-1.261 1.732-1.361.9-.781.9-1.582 0-.68-.51-1.121-.51-.44-1.311-.44-.841 0-1.622.54-.781.54-1.262 1.361l-2.042-1.401q.72-1.362 2.002-2.203 1.282-.84 3.004-.84 2.062 0 3.343 1.09 1.282 1.092 1.282 2.874 0 1.662-1.302 3.023-.66.661-2.142 1.782-1.482 1.122-2.002 1.802zM30.915 92.914l-1.121-2.103q1.942-1.1 2.973-3.133 1.032-2.032 1.032-4.736 0-2.683-1.042-4.725-1.04-2.042-2.963-3.184l1.121-2.062q2.343.961 3.935 3.624 1.592 2.663 1.592 6.347 0 3.685-1.582 6.338t-3.945 3.634zM47.234 75.013q1.361 0 2.393.551 1.03.55 1.632 1.512.6.96.89 2.142.29 1.182.29 2.543 0 3.664-1.5 5.877-1.503 2.212-4.426 2.212-2.142 0-3.684-1.281l1.201-2.002q1.122.82 2.343.82 2.703 0 3.224-3.784-1.322.64-2.703.64-2.043 0-3.314-1.24-1.272-1.242-1.272-3.204 0-1.982 1.322-3.384 1.321-1.402 3.604-1.402zm-1.752 3.114l-.305.325q-.306.326-.306 1.267 0 .94.61 1.532.612.59 1.733.59 1.241 0 2.483-.72-.16-3.645-2.583-3.645-1.021 0-1.632.65zM58.907 75.013q1.362 0 2.393.551 1.031.55 1.632 1.512.6.96.89 2.142.291 1.182.291 2.543 0 3.664-1.502 5.877-1.501 2.212-4.425 2.212-2.142 0-3.684-1.281l1.202-2.002q1.12.82 2.342.82 2.703 0 3.224-3.784-1.322.64-2.703.64-2.042 0-3.314-1.24-1.271-1.242-1.271-3.204 0-1.982 1.321-3.384 1.322-1.402 3.604-1.402zm-1.752 3.114l-.305.325q-.305.326-.305 1.267 0 .94.61 1.532.61.59 1.732.59 1.242 0 2.483-.72-.16-3.645-2.583-3.645-1.021 0-1.632.65zM70.58 75.013q1.362 0 2.393.551 1.031.55 1.632 1.512.6.96.891 2.142.29 1.182.29 2.543 0 3.664-1.501 5.877-1.502 2.212-4.425 2.212-2.143 0-3.684-1.281l1.2-2.002q1.122.82 2.344.82 2.703 0 3.223-3.784-1.321.64-2.703.64-2.042 0-3.314-1.24-1.271-1.242-1.271-3.204 0-1.982 1.321-3.384 1.322-1.402 3.605-1.402zm-1.751 3.114l-.306.325q-.305.326-.305 1.267 0 .94.61 1.532.611.59 1.733.59 1.241 0 2.482-.72-.16-3.645-2.583-3.645-1.02 0-1.631.65zM82.374 80.76q2.142 0 3.444 1.201 1.301 1.202 1.301 3.204 0 2.142-1.481 3.394-1.482 1.251-3.624 1.251-1.482 0-2.713-.63-1.232-.631-1.973-1.813l1.922-1.481q1.162 1.381 2.664 1.381 1.06 0 1.721-.58.661-.581.661-1.482 0-.921-.67-1.472-.671-.55-1.712-.55-1.102 0-2.183.7l-1.702-1.321v-6.147q0-1.141 1.161-1.141H86.3v2.342h-5.687v3.444q.8-.3 1.762-.3zM94.428 89.79q-2.843 0-4.305-1.992-1.462-1.992-1.462-5.376 0-3.404 1.462-5.406 1.462-2.003 4.305-2.003 2.823 0 4.275 2.003 1.451 2.002 1.451 5.406 0 3.384-1.451 5.376-1.452 1.992-4.275 1.992zm0-2.483q2.923 0 2.923-4.885 0-4.926-2.923-4.926-2.944 0-2.944 4.926 0 4.885 2.944 4.885zM102.157 82.342h7.488v2.282h-7.488zM116.513 80.76q2.142 0 3.444 1.201 1.301 1.202 1.301 3.204 0 2.142-1.481 3.394-1.482 1.251-3.624 1.251-1.482 0-2.713-.63-1.232-.631-1.973-1.813l1.922-1.481q1.162 1.381 2.663 1.381 1.062 0 1.722-.58.661-.581.661-1.482 0-.921-.67-1.472-.671-.55-1.713-.55-1.1 0-2.182.7l-1.702-1.321v-6.147q0-1.141 1.161-1.141h7.108v2.342h-5.686v3.444q.8-.3 1.762-.3zM128.467 80.62q2.042 0 3.323 1.241 1.282 1.242 1.282 3.184 0 2.002-1.332 3.384-1.331 1.381-3.554 1.381-2.643 0-4.024-1.932-1.382-1.932-1.382-4.855 0-2.143.64-3.915.642-1.772 2.053-2.933 1.412-1.162 3.394-1.162 2.403 0 3.804 1.542l-1.521 1.822q-1.001-.88-2.223-.88-1.461 0-2.262 1.09-.801 1.092-1.062 2.794 1.322-.761 2.864-.761zm-.28 6.768q1.02 0 1.631-.651.61-.651.61-1.632 0-.961-.63-1.522-.63-.56-1.672-.56-1.321 0-2.603.96.16 1.482.791 2.443.63.962 1.872.962zM142.022 82.041q1.081.4 1.702 1.362.62.961.62 2.102 0 1.983-1.541 3.144-1.542 1.161-3.664 1.161-1.742 0-3.024-.73-1.281-.731-1.862-1.913l1.902-1.501q.982 1.601 2.924 1.601 1.101 0 1.792-.56.69-.56.69-1.342 0-.88-.68-1.361-.68-.48-1.742-.48h-2.022V81.18h1.621q1.162 0 1.842-.56.681-.56.681-1.362 0-.74-.55-1.241-.551-.5-1.512-.5-1.582 0-2.603 1.48l-1.982-1.34q.7-1.222 1.952-1.953 1.251-.73 2.853-.73 2.022 0 3.334 1.13 1.311 1.132 1.311 2.794 0 1.001-.54 1.822-.54.82-1.502 1.321zM150.832 75.013q1.362 0 2.393.551 1.031.55 1.632 1.512.6.96.89 2.142.291 1.182.291 2.543 0 3.664-1.502 5.877-1.501 2.212-4.425 2.212-2.142 0-3.684-1.281l1.202-2.002q1.12.82 2.342.82 2.703 0 3.224-3.784-1.322.64-2.703.64-2.043 0-3.314-1.24-1.271-1.242-1.271-3.204 0-1.982 1.321-3.384 1.322-1.402 3.604-1.402zm-1.752 3.114l-.305.325q-.305.326-.305 1.267 0 .94.61 1.532.61.59 1.732.59 1.242 0 2.483-.72-.16-3.645-2.583-3.645-1.021 0-1.632.65z" stroke-width=".02002"/></g></svg>